<?xml version="1.0" encoding="UTF-8"?>
<svg viewBox="0 0 913 1094" xmlns="http://www.w3.org/2000/svg">
 <g fill-rule="evenodd">
  <path d="m94 548v2h-1q-1 1-1 2v1h-1v1h-1v5q1 3 1 3h-1v2h-1v1h-1v1h-1v1h-1v3l-2 5q-2 5-3 5v1q-1 0-1 1h-1v1h-1v2h-2v3h-1v-1h-1v-4h-1v-5q-1-4-1-8t2-10l3-6h1t0-1q1-1 2-1t1-1h1q0-1 0-1h2l2-1q1-1 3-1l2-2h2q1-1 1 0t0 2z" fill="#8c7861" stroke="#8c7861"/>
  <path d="m137 422l2-1v1q0 1-1 1t-1 1l-1 1v1h-1v1l-5 2q-5 2-8 7-4 4-4 5l-1 1-1 1v5l-1 1v1l-1 4q0 4 0 4t-1 0v1h-1l2 7q2 7 2 8v2h-2q-2 0-4 0l-2 1v10l-1-1h-1v-1h-1v-1h-1v-3h-1v-1h-1t-1-1q-1 0-2-5t-3-5h-1v-3q1-3 2-8t7-14 15-16q9-8 12-7t6 1z" fill="#cbc1b5" stroke="#cbc1b5"/>
  <path d="m781 568h2v-1h1v1l2 2q0 1 1 4l1 2v-3l1-1 1 4q0 5 1 6v1q-1 0-2 4t-2 4-3 3q-2 4-5 6l-3 1v2q0 3 2 3 2 1 2 2v1h-1v1h-1v1l1 1v1h-1v1h-5v-1h-1v-1h-2l-2-1h-1v1l-1 1v-4l-1-7v-6h1q1 0 3 2 2 0 3-2 2-3 2-2 0 0 2-12l2-12v-1h1v-1h2z" fill="#c54a1b" stroke="#c54a1b"/>
  <path d="m707 376l3-3 1 5q1 4 1 6t-2 2q-1 0-1 2t1 3q2 1 0 3 0 1 0 2 0 2-2 13t-2 17q0 5-2 6 0 2-1 4 0 2-1 2-2 1-2 6-2 6 1 11 2 5 3 5t1 1 2 1q1 1 5 8 4 8 6 8 1 0 2 1h2v8h-1v-1h-1v-1h-1v-1h-2q-2 0-3 4v3-2q0-2-2-2h-1l-2 27q-3 26-3 27v1t-1-1-2-1q-2 0-3 1l-1 1h-1v1h-1v1h-2v2l-1 1v-1l-1-1-1-1v-2q0-3 0-7t-2-4 0-3 0-12q0-10 0-12t0-2q0-2 1-8t5-8l4-2 2-1 1-1h1v-2h-1l-1-1v-1q0-1-2-3 0-2-3-11-3-8-3-24t2-30q2-15 5-19 2-3 3-7 0-4 3-8z" fill="#731702" stroke="#731702"/>
  <path d="m595 850v1q-1 1-1 5v4h-6q-7 0-8 0h-2l3-2q3-2 8-5t5-3 1 0z" fill="#e4908f" stroke="#e4908f"/>
  <path d="m731 901l3 2q3 3 26 6 22 3 23 3v1h-3q-3 1-5 2l-2 1q-1 0-5 2l-6 3v2t-1 1h-3q-2 0-6 3l-4 3h-2q-2 0-6 2h-4v1h-1v1h-1v-3h-1v-1h-1v-15q0-10-1-11l-1-2h1v-1z" fill="#e8b1a8" stroke="#e8b1a8"/>
  <path d="m659 708h1l-1 6q-1 7-2 8v1q-1 0-1 1-1 0-3 0l-2-2h-1v-9q0-3 1-3v-1h3q4-1 5-1z" fill="#f9ece4" stroke="#f9ece4"/>
  <path d="m729 871v-14l1 3q2 4 2 13t-1 19v10h-1v-8q0-9-1-23z" fill="#eeb69f" stroke="#eeb69f"/>
  <path d="m461 302h1l44 4q44 2 48 3h5l21 1q21 2 21 2-1 1-1 2 0 2-2 4l-3 2h-3q-2 0-6 1l-3 1h-3q-2 0-10-1-7-1-59-3l-52-3v-10q1-2 2-3z" fill="#ad8c7c" stroke="#ad8c7c"/>
  <path d="m162 566l-1 6q-1 7-4 10-3 4-3 4v1t-1 1l-2 2q-3 2-3 2v1l-4 3q-4 3-4 3v1h-1v1h-1v1h-1v1h-1v2h-2v-3h1v-1h1v-1h1v-1h1v-1q0-2-1-3v-1q1-1 4-8 3-8 4-15l1-7 1 1v1l3-2q4-2 7-2t4 2q1 1 1 2z" fill="#b4a894" stroke="#b4a894"/>
  <path d="m601 312h4q4 0 4 1 1 1 1 1v4q0 3-1 4v1h-10l-7-1h-9l3-1q4-1 6-1h3l3-2q2-2 2-4 0-1 1-2z" fill="#946b56" stroke="#946b56"/>
  <path d="m152 530v-1l14 1q14 1 14 2 1 0 6 2 4 0 4 1h-1l-1 1h-7q-7 0-17 0h-14v-2q0-1 1-2 2-2 1-2z" fill="#b09c89" stroke="#b09c89"/>
  <path d="m547 578l4-1-1 1q0 2-1 2v1q-1 0-3 2l-2 2-2 2q-2 3-2 3h-1v-2q1-1 2-4 2-4 6-6z" fill="#aa674a" stroke="#aa674a"/>
  <path d="m366 886v-1h2q1 1 2 1v1q0 1 0 2h1l1 1q0 2 0 3-2 1 0 2 1 1 1 1h-2q-2 0-3-1l-2-1h-2v-2l1-2q1-3 1-4z" fill="#fba787" stroke="#fba787"/>
  <path d="m146 500l4-2 1-1h1l1 3q1 4 1 5 1 1 4 1h3t-1 1l-2 1h-10q-1 0-1-1-1 0-5-2l-4-1v-1h2q1-1 6-3z" fill="#dbd4d0" stroke="#dbd4d0"/>
  <path d="m543 362h5v1h1v1h-3t0 1q-1 1-14 0h-12l1-2q1-1 9-1t13 0z" fill="#edd4be" stroke="#edd4be"/>
  <path d="m617 583q0 1-3 1-2 0-6 0-3 0-7 2l-4 1h-1q0-1 0-1l2-2q1-2 4-2 3-2 8-1t6 1 1 1z" fill="#b68a6f" stroke="#b68a6f"/>
  <path d="m810 380v-2h1q1 1 1 1v1h2v1h1v1h1t0 1h1q0 1 1 1v6q0 5-1 5-1-1-2-1h-1l1 4q1 3 2 4h-1q-1 0-3-2-1-2-4-3-2-1-7 2-4 3-4 5v1h-1v1h-2l-1-1-1-1h-1v-1h-1v-1h-1v-2h1v-1h1v-1h1v-1h1v-3q0-4 3-6t7-3q3 0 3-1 0-2 1-2 2 0 2-2z" fill="#af280a" stroke="#af280a"/>
  <path d="m328 488h1l4 1q4 1 7 1h4l-2 1q-3 1-7 1h-9l-1 1q-1 1-3 1-1 0-1-1v-1l2-3q1-3 2-2t3 1z" fill="#fdae9e" stroke="#fdae9e"/>
  <path d="m576 364h9v1h1v1h-1v1h-1l-2 17q-4 17-4 22 0 4-1 9v5h-6q-6 0-13-1h-7v-1l-1-2t2-12l1-11v-3l1-2 2-12q2-12 6-12t14 0z" fill="#cd930e" stroke="#cd930e"/>
  <path d="m380 919l6-3-7 9q-7 9-8 9-1 1-2 2-1 2-2 4t-1 3v5l1 1 1 1h2l2 1 1 1h1l2 1h2v2h1l1 1h-1v1h1v3h-5q-5 0-27-4l-21-4h-2v-1h-1v-3l1-1 1-1h1l1-1 1-1q1 0 5-2 6-3 22-12l17-8h1q1 0 6-3z" fill="#f19a8b" stroke="#f19a8b"/>
  <path d="m280 568v-1l5 1q5 0 5 1v1l2 1q1 1 1 1h-3q-2 0-6-2-4-1-4-2z" fill="#bc6d68" stroke="#bc6d68"/>
  <path d="m714 269l2 1q1 0 4 1l3 1h5q4 2 4 2h1v1q0 1-4 3-4 1-4 2t-2 2h-2v1q-1 0-1 1h-3v1h-1q-1 0-2 2v2l-1 1h-1v-2h-1v-2q1-1-3-6l-4-4-1-1q-1-1-1-3v-3q0-1 6-1 5 0 6 1z" fill="#7f2a04" stroke="#7f2a04"/>
  <path d="m508 179l-3-3 3 3q4 3 5 5 1 3 2 4v4h-2v2l-1 2v1h-1v-1h-1t0 1q-1-1-3-2t-3-1q0 1-2 1-1 0-1 2v2h-1q0-1-4-5l-3-4q1 0 0-2l-1-2v-2q0-1 2-1l2-1v-2h1q1 0 3 0t2-1l2 1q1 0 2 1l1 1h2q1 0-1-3z" fill="#b3957b" stroke="#b3957b"/>
  <path d="m392 963h2q3 1 5 1h2l1 1q1 1 8 1h8q2 0 5 1h3l10 1q9 2 12 2h4l2 1 1 1 11 1q12 1 12 2h-2l-1 1q-1 0-1 0v1h-2q-1-1-16 0-14 1-22 2-9 1-8 2t-2 2l-3 1v1h-1v7l2 3q3 3 13 8t12 5h2l1 1 1 1h2v2h-2l-2 1-2 1h-3q-2 0-24-2t-47-8l-25-6h-1l-1-1-2-1h-1v-1h-1v-5h2l2-1 1-1 20-6q19-7 20-7 0-1 1-1h1v-1l1-1v-2h1v-1h1v-6z" fill="#eedfd8" stroke="#eedfd8"/>
  <path d="m476 945v1h1v4l1 2 8 2q9 2 14 3l4 1h-1l-1 1-1 1h-1v1h-2l-2 1h-2q-3 0-17 1-15 1-14 3 1 1 0 1-1 1-2 2l-1 1h-12q-3 0-12-2l-10-1q0-1 1-1t0-2q-1-1-2-2l-2-2h-3v-1h-1v-1h2v-1h-1v-1h1l8-2q8-2 12-4 4 0 5-2 0-1 0-2t8-2q8-2 8-2v-1h7q6 1 6 2 1 2 1 2z" fill="#c85131" stroke="#c85131"/>
  <path d="m609 202l-3-6h1q1 0 1 0v1t1 1q1 0 1 0v1l3 5q3 5 2 14-1 8-2 10t-1 2q-1 0-1 1-1 0 0-3 1-2 1-11t-3-15z" fill="#7f540f" stroke="#7f540f"/>
  <path d="m694 261v1t1 3v6q-1 3-2 2l-1-1v-1h-1v-1q-1 0-1-2v-6q0-4 2-2 2 1 2 1z" fill="#c49a86" stroke="#c49a86"/>
  <path d="m432 757v-16 7q1 7 5 9 5 2 5 7 0 4-3 7t-3 5v3h1v1h-1v1h-1v1h-1v3h-1v1h-1v-6q0-7 0-23z" fill="#ea5515" stroke="#ea5515"/>
  <path d="m114 615l3-1h2q2 0 2 1l-3 2q-3 1-8 2h-5v-1h2l1-1q2-1 6-2z" fill="#c0b7b0" stroke="#c0b7b0"/>
  <path d="m66 552l6-6v1q1 1 4 1 4-1 2 2-1 2 0 3l-3 7q-3 6-3 10t1 8v12q1 6 1 6v1h-3q-3 1-3 1h-2v7h-2v-3h-1v-1h-1v-2q0-2-1-3 0-1-1-1t-2-3-2-3q-1-1-2-6l-1-5v-2q1-1 4-9t9-15z" fill="#b6a999" stroke="#b6a999"/>
  <path d="m502 217l2-7 1 6q1 6 3 6h2v1q0 1-1 1t-1 1-2 1-4 3-6 5l-5 2 1-1q0-1 0-1h2v-1l1-1v-1l1-1v-1t2-3q2-2 4-9z" fill="#a6742e" stroke="#a6742e"/>
  <path d="m698 271v-1h4v2q0 2 1 3l1 1 4 4q4 5 3 6v3q-1 1-1 3t-2 2l-1-1q1 0 1-2t-1-2l-1-1h-1q-1 0-1-1v-1t-1 0q-1-1-1-1v-1t-3-6l-2-7q1 0 1 0z" fill="#924a1d" stroke="#924a1d"/>
  <path d="m379 912v-1h1q1 1 2 1h2l1 2q1 1 1 2 0 0-1 0v1q-1 0-1 1 0 0-1 0v1q-1 0-1 1h-2q-1 0-2 1t-3 1h-2q1-1 1-2l2-1v-1h1l1-1 1-1h1v-2h1l-1-1q-1 0-1-1z" fill="#fcb2a7" stroke="#fcb2a7"/>
  <path d="m237 577h2l8 1q7 2 8 2v1h-11q-5-1-6-1h-2t-2-1l-1-1h1q1 0 3-1z" fill="#f36834" stroke="#f36834"/>
  <path d="m165 436l6-1h6l2 1q2 1 4 4 3 3 3 4v1l1 1q1 0 1 1v1h-1q-1 0-1-1t-4-5q-4-3-11-4l-6-2z" fill="#f1e9d1" stroke="#f1e9d1"/>
  <path d="m307 498h2q2 0 5 0h2t0 1h-1v1h2v1l-1 1v1l-3 1q-3 1-2 2 0 0 3 1t8 1h5l9 1q9 1 11 1h2t1 1q0 1-24 2l-25 1h-1v1h-1v1h-1v1h-1v1h-3v1h-5v-1h-1v-1h-1v-1h-1v-3h2l2-1h-2q-2 0-2-2-1-2-4-2h-2v-1l-1-1v-1h1v-1h4l12-2q12-2 12-3-1-1-1-1z" fill="#f8eeeb" stroke="#f8eeeb"/>
  <path d="m464 605v1h-2l-2 1-3 1h-3v-4h3v-2h-3v-1t-1 0q-1 1-5-3t-4-10q-2-6-2-8-2-1 0-5l1-4h1q0-1 0-1 1 0 1-1l1-1q2 0 9 0t10 3 5 7q2 3 1 12t-2 11-3 3-2 1z" fill="#caa594" stroke="#caa594"/>
  <path d="m744 328v2q0 1-1 2t-5 2q-5 2-5 6v6q0 4 1 4t1 1h-1q-2-1-4-6l-1-6v-1q-1 0-1-2l-1-1 1-2q0-1 6-3t7-1 1 0q1-1 2-1z" fill="#b78c70" stroke="#b78c70"/>
  <path d="m411 823h6q0 1-1 1 0 0-4 1l-5 1-1-2q-1-1 5-1z" fill="#fae5de" stroke="#fae5de"/>
  <path d="m514 822v-2 2q1 1 6 2 4 0 6 1h2l3 3q3 4 3 5v5t-1-2-7-3q-5-2-5-3t-3-4q-4-2-4-4z" fill="#ea685d" stroke="#ea685d"/>
  <path d="m725 857l-1-3 2 1q2 1 2 2h1v14q1 14 1 23v8l1 2q1 1 1 11v10h-1v-9l-1-9v-1h-5v1h-1q0 1-10 5-11 4-15 4t-5-1q0-2-1-2-1-1-1-1 0-1 0-5-2-4-2-11v-6h1v-1h1v-2h1v-1h2v-1h1v-1t2-1q1-1 12-9 11-6 13-10 3-4 2-7z" fill="#d76b51" stroke="#d76b51"/>
  <path d="m497 534l1-8 1 4q1 5 1 8v3l1 3v4l1 1v1l54 5q54 5 63 6 9 0 9-4t1-10v-6l1 9q2 8 2 9v1h11v-1h1v-1h5l-2 24q-1 24-3 30 0 6-1 14v9h2v1h-1v1h-1v1h-4q-4 0-5 1v-1q0-2-1-2h-1v-1h-1v-1h-2q1-1-5-3l-6-1-1-1-1-1h2q1 0 3-2 1-3 2-6v-4q1-1 2-4 1-2 2-8 1-7-1-11t-5-7l-4-3q0-1-1-1t-6-1-8 1q-3 0-4 2l-2 2h-1q-1 0-3 2l-1 2v1h-1v7q-2 8 0 12t2 5 1 1v1l2 3q1 2 2 3l1 1v1h1v1h1v1h1v1h-1l-6 1-7 1h-3q-3 0-8-2-5 0-36-3-30-2-30-3t-30-4q-31-2-54-4l-22-1h-4q-5-1-10-1-4 0-8-2-4-1-4-16l-1-15h1v-7h1v-1h1l1 1h1l3-1 3-1h2v3l-1 1v3q-1 2-1 7v4l1 2 1 2 2 4q3 4 4 5t2 1 0 1h1l1 2q2 1 8 1 5 0 6-2 0-1 1-2v-1h1q0-1 2-2 1-1 3-6 3-4 3-11 0-6-4-11-3-5-6-6l-4-1t-6 0h-6v-6l1-2 1-1v-1q0-1 2-6l1-5 41 3q42 4 46 4h5v-1h1v-1h-1v-3q1-2 2-11zm-33 71v1h-2l-2 1-3 1h-11v-1t-2-1q-2-2-5-5-3-4-3-11 0-8 1-11l1-3 1-1q1-1 2-3l2-1v-1q1 0 1 0 0-1 1-1l1-1q2 0 9 0t10 3 5 7q2 3 1 12t-2 11-3 3-2 1zm88-28l2-1 7 1q7 1 9 3 4 3 4 4l2 5q2 5 1 11t-3 10-6 6-8 2h-6q-3 0-6-2-2-1-2-2t-1-1q-1-1-3-4t-2-9l-2-6h1v-1h-1v-1t1-1v-3q1-1 2-4 2-4 6-6l4-1h1z" fill="#901302" stroke="#901302"/>
  <path d="m80 581h1v1q-1 1-1 5v8q-1 4-2 3-2 0-3-1h-1v-1t-1-6v-7h1v4h1v1h1v-3h2v-2l1-1q0-1 1-1z" fill="#ac9684" stroke="#ac9684"/>
  <path d="m499 350l4-1h3v1h2q2 1 4 9 0 8 1 9v1l-2 1q-2 0-5 22-4 21-6 52t-2 56v26l-1 8q-1 9-2 11v2h-1v-9h-1q-1 0-1-3t-3-4-3 1q0 3-2 2l-2-1v-35q0-22-6-23t-7-1h-5q-4 0-18-2-15-2-24-2-10 0-24-2-13-2-14 0l-1 2q-1 0-1 0t-1-1-1-11l-1-9v-8l1-4v-1h1v-1h1v1h2v3h1v-1h1v-4l1-2 1-1v-1l1 3q1 3 1 2h1v-1h2l-1 2q0 1 0 4v6h2l1 1 1 1h4l1-1 1-1h1v-1h1v-7h2v-4l-1-1q-1-1-1-1 0-1-1 1l-1 2q-1-1-1-1v-2q1-2 1-4v-1h-2v-5h3l-1 1q0 1 1 1t2 0h3v-1q0-1 0-2v-1l-1-1v-1h2v8h2v-1h-1v-4l1-1q1-1 1-2t-2-2q-1 0-2-3v-2l1-1q1 0 1-1h2q3 0 4-9l2-10v-3h1v-1h1v-1h1v1h1v3h1v-1h1v14q0 6 0 7v1h2q2 0 6 2 5 0 8 0 2 0 6 0 3 0 6-20l4-20v-3h2l2 1h1v1h1v4h1l-2 19q-1 18 1 19 3 1 12 1 9 2 10 1 2-1 6-26t4-26v-1t2-4q1-3 0-3-1-1 0-1t1-1-1-1 3-2zm-84 70h15q14 0 18 1l5 1v2q-1 3-9 17t-9 15l-1 1v2l-1 1v1h-1l-1-1h-1v-1h-1v-1h-1v-2q0-2-6-16-6-15-7-18v-2zm50 5q3 0 3 3 0 2-4 2-2 0-2-2 1-3 3-3zm5 27h-4v-6q0-5 4-5 5 1 6 4 0 4-1 6-1 1-5 1z" fill="#7e0f01" stroke="#7e0f01"/>
  <path d="m464 474h3v1q-1 0-1 1-1 0-16 2h-14v1h-6q-5-1-22-2l-18-1v17h-2l-1 1h-1v2h-1v-1h-1v4h-1v-11q0-10-1-10t-1-1 1-1 1-3v-3l1-2q1-2 14 0 14 2 24 2 9 0 24 2 14 2 18 2z" fill="#b28274" stroke="#b28274"/>
  <path d="m402 965l-1-1 8 1q8 1 8 1h-7q-7 0-8-1z" fill="#e5ab80" stroke="#e5ab80"/>
  <path d="m589 484h19l1 1h1v39q-1 0-2-2 0-1-1 2t-1 4h-1v-6q-1-7-1-16 0-10-3-11-2-1-10-3l-8-1v-1h1l4-1q3 0 2-2-1-3-1-3z" fill="#bc8e7c" stroke="#bc8e7c"/>
  <path d="m791 583v1q1 0 1 2v1l-3 9q-3 9-6 14t-4 5v-3l-1-1v-1h1v-1h1v-1q0-1-2-2-2 0-2-3v-2l3-1q3-2 5-6 2-3 3-3t2-4 2-4z" fill="#db7343" stroke="#db7343"/>
  <path d="m393 340l52 3q52 3 57 4h5v2h-5l-2-1h-12q-11 0-52-3l-42-3q0-1-1-2z" fill="#f1bcad" stroke="#f1bcad"/>
  <path d="m277 484l-2 2q-3 1-3 2h-16q-3 0-13-2l-10-1q0-1-2-1h-2l-1-1-2-1h-1v-1h-1v-1h18q18 0 26 2 9 2 9 2z" fill="#fdcccb" stroke="#fdcccb"/>
  <path d="m780 489v-3 1h1v1h2v1h1v1l2 1q1 1 3 2t5 1h3t-7 1h-6v2l1 1h-1q-1 0-1-1h-1v-1l-1-1-1-1v-5z" fill="#ce4720" stroke="#ce4720"/>
  <path d="m305 568h2t1 1h1l1 1h2v1h-1v1h-6v-1q-1 0-1-1 0-2 1-2z" fill="#c19c80" stroke="#c19c80"/>
  <path d="m183 512h8q3 1 3 2t5 1q5 1 5 1h-2l-1 1h-1v2h-8q-8-1-16-1l-8-1q0 1-1 1h-1q0-1-1-1 0-1 2-1l2-2h-1q-1 0-1-1h5q6-1 11-1z" fill="#a69d98" stroke="#a69d98"/>
  <path d="m681 833l-1-3q1 0 2 1l2 2q1 3 12 5 12 2 14 2h1l1 1 2 1h2q2 1 2 2h-2q-3 0-7 2l-5 2v1h-2q-1 1-4 2l-4 1h-6v1h-1v1h-1l-1-1h-1v-1q0-1-1-6v-6q-1-3-1-3 0-1-1-4z" fill="#edbab2" stroke="#edbab2"/>
  <path d="m369 868l2-16 1 1q2 1 2 5 0 5 1 5l-1 11q-2 10-2 11-1 1-2 1t-2-1h-2v-1t3-16z" fill="#f8a589" stroke="#f8a589"/>
  <path d="m774 918l3 1q3 1 2 3v2l1 2q2 3 1 4-1 2-2 3t-2 2h-1t-12 7l-12 7t-5 3l-5 2v1h-1v1h-2v-1l1-1 1-1 1-1h-1q-1 0-1-2v-2h-1v-1h-1v1h-2q-1 0-2 0 0 0-3 1l-3 1v-2h1v-1h1v-1h-3v1h-1v-3h2l4-3q4-2 5-3v-1l3-2q4-1 5-2l1-1h1v-1q1 0 1 0l5-3q5-2 6-3 2-1 2-1h1t0-1l4-1q4-1 4-2t2-2q2 0 2 0z" fill="#b74920" stroke="#b74920"/>
  <path d="m732 934v-4h1v1h1v3h1v-1h1v-1h4q4-2 6-2h2v1t-1 0v1h-1l-1 1q-1 1-5 2l-3 2h-3q-2 0-2-3z" fill="#d0867a" stroke="#d0867a"/>
  <path d="m717 967h1v1q0 1-6 5-6 5-10 8-3 4-10 5-7 2-7 3t-2 1q-1 0-18 1l-16 1h-3q-3 0-10-1t-33-5l-26-4h-1l-1-1h-1v-2h1l14-2q14-1 15-2 2-1 4-1h2l2-1h2l26 3q27 4 41 3t25-6q10-5 11-6z" fill="#b98f87" stroke="#b98f87"/>
  <path d="m722 848l-4-4 2 1q3 1 3 2t3 3q2 3 3 4v1h-1q-1 0-2-1v-2h-1t-3-4z" fill="#ecbab7" stroke="#ecbab7"/>
  <path d="m471 178l7-5v1q0 1-1 1l-1 1h13q10 0 11 2 2 0 2 1t-2 1-3 0h-1v2l-2 1q-2 0-2 1v2q-1 0-5 0t-5 1l-2 1-4 1q-4 1-8 7-4 5-4 17t3 16q3 5 7 7t10 1 6-1h2q2 0 2-1v-1h-1l1-1q0-1 0-1h1l1 1q1 1 2 0 2-1 4-4t4-3 2-1 1-1v-1q1 0 1-1 0 0 1-4 1-3 0-12l-1-9q0-1 0-1h1v1h1v-1l1-2v-2h2v-3h1v2l1 1 1 2 1 9q1 9-1 19-2 9-3 12t-2 4v1h-1q0 1 0 1-1 0-3 2-1 2-8 6l-6 4-1 1-2 1h-4q-3 0-8 0h-6t-3-2q-3-1-3-2t-4-4q-3-2-7-10-3-7-4-18t1-16q2-6 6-13t11-11z" fill="#b79479" stroke="#b79479"/>
  <path d="m320 494l1-2v1q0 1 1 1 2 0 3-1l1-1h5l11 2q10 2 10 2h-2q-1 0-1 1h-3q-2 1-5 2l-3 1h-3q-2 0-5-1t-6 2l-2 2h-6v-1l1-1v-1h-2v-1h1q0-1 0-1t2-1q1-1 2-3z" fill="#fdcfc9" stroke="#fdcfc9"/>
  <path d="m728 737l4-10h1v1h1l-3 10q-3 11-8 16-4 6-5 6v-1q0-1 1-2l1-1 1-2q1-3 2-5 1-3 5-12z" fill="#e26f3e" stroke="#e26f3e"/>
  <path d="m596 365h1l-1 1q0 2 3 2h3l6 1q6 1 10 0h4v1l-4 24q-4 23-4 26v2h-2q-3 0-14 0l-10-1v-5q0-4 4-28 3-23 4-23z" fill="#cb8e02" stroke="#cb8e02"/>
  <path d="m414 678v-10l2 6q2 5 10 8 8 2 9 2t2 1h1l2 1q1 0-1 1l-2 1h-3v1h-1v1h1v1h-2q-1-1-9-2l-8-1q-1-1-1-10z" fill="#c55318" stroke="#c55318"/>
  <path d="m396 353h1l-1 2q0 2 13 2t13-1-2-1q-3-1-3-1h6v1h1v3l-2 2q0 1-2 12t-2 13v5l-2 10q-1 9-4 9h-7q-5-1-11-1l-5-2v-4q1-5 3-27 3-22 4-22z" fill="#cc8504" stroke="#cc8504"/>
  <path d="m440 217h1l-1 20q0 20-1 27l-1 7v-13q0-13-4-14-3-2-4-6t0-10l2-6 4-2q4-2 4-3z" fill="#d1ad91" stroke="#d1ad91"/>
  <path d="m692 219v8h2l2-3q1-2 2-3v1q0 1-1 2v2q-1 1-1 4v3l-2 7q0 8-1 10v3q-1 0-2-1l-1-2-2 1q-1 1-2 2l-1 1v-2q-1-2-1-2v-1t1-1v-6q-1-5 0-10v-6l3-3q3-3 4-4z" fill="#94715e" stroke="#94715e"/>
  <path d="m360 489h1l-1 3q-2 3-2 4h-1q-1 0-3 1l-3 1t-1-1h-1q0-1 1-1h2q1 0 2-3v-2l2-1q3 0 4-1z" fill="#fd816c" stroke="#fd816c"/>
  <path d="m597 366v-1h1q2 1 12 1h10l2 1q1 0 1 1-1 1-1 1h-4q-4 1-10 0l-6-1h-3q-3 0-3-1v-1t1 0z" fill="#f2d5b4" stroke="#f2d5b4"/>
  <path d="m768 367l-2-2h2l1 1 11 1q11 1 12 1 2-2 6-2 3 0 4-1l5 3q5 4 7 9 4 5 4 6v1h-1q-1 0-1-1v-1h-1v-1h-1v-1h-2v-1t-1-1h-1q0-1-1-2-1 0-8 0t-11 3q-4 4-7 5-3 2-3 3t-2 1h-7l-1-1-1-1h-1l-1-1-1-1h-1v-1h3q2-1 4-1h1v-1h1v-2h-1v-1h-3q-2 0-3 1l-1 1-1 1v1h-1v-4l1-1q1-1 1-1v-1h1v-1h1q1 0 1-2 1-3-1-5z" fill="#bb3510" stroke="#bb3510"/>
  <path d="m387 494l1-1h2v5q0 6 1 10v5l-1 2q0 2 1 2t1 1-1 1l-1-1h-2q-1 0-3-2-2 0-2-2v-15h1v-4h1v1h1v-2h1z" fill="#c19087" stroke="#c19087"/>
  <path d="m333 484h29v2h-1q-1 0-1-1h-14l-13-1z" fill="#fdbca1" stroke="#fdbca1"/>
  <path d="m380 824l4-4h1v1l-3 3q-2 2-3 2v4l-1 2q-2 1-2 1h-2v-1l1-2 1-1v-1q0-1 4-4z" fill="#fdb19f" stroke="#fdb19f"/>
  <path d="m522 444q2 0 4 1t2 5q0 5-3 6-3 0-5-1-2-2-2-5t0-4q2-2 4-2z" fill="#a97362" stroke="#a97362"/>
  <path d="m109 492l-1-4 6 7q7 7 10 7 4 2 8 2t5-1h1v1l4 1q4 2 5 2 0 1 1 1v1l1 1h-1q-2 0-4-2-1 0-5 2l-5 2v4l-1 2-1 1v8q-1 3-13 3t-15 2-4 2h-1q-1 0-1 0v1h-2q-3 1-4 1h-1l-1 1-1 1h-3l-2 1h-3v-1h1v-1h1v-1h3v-1h1v-1h1t2-2q2-1 6-6 4-6 6-12l1-7h1v2l1 1 1 1v-1h1l1 1h1v-3l1-2v-6q0-5-1-8z" fill="#c9c0b6" stroke="#c9c0b6"/>
  <path d="m780 913h3v1t1 1v3l-1 2q-1 2-2 2h-1v1q0 1-1 1v-2q1-2-2-3l-3-1q0-1-1-2l2-1q2-1 5-2z" fill="#da7258" stroke="#da7258"/>
  <path d="m736 655l1 1h1v1l1-2 1-2v2h1v1h1v2l1-1 1-1h4v-2h2q2 0 2 1l-2 6q-3 5-4 7 0 1-2 2-2 2-4 2-3 0-3 1l-1 1v2h-1v1h-1v2h-2v-5h1v-1h1v-1q0-2-1-2-1-1-1-10v-8l1-1q1-1 1 1 1 3 2 3z" fill="#d25f31" stroke="#d25f31"/>
  <path d="m335 500h2-7q-1 0-3 1h-2v1l-1 1v1h-2v-1l2-2q3-3 6-2t5 1z" fill="#fc7d79" stroke="#fc7d79"/>
  <path d="m411 614l-7-1 22 1q23 2 54 4 30 3 30 4t30 3q31 3 36 3 5 2 8 2h7l13 2q13 2 19 2h8v1h1v1h-7v1h-1q0 1 0 1t-3 0q-3 1-3 2 0 2-2 2-2 1-2 2t2 2q2 0 0 2-1 2-2 2t-1 2q0 1-5 1t-5-1q-1-1-1 0t-2 1q-1 1-20-1-18 0-36-1-19-1-19-2t-4-1-17 0q-14 0-30-1t-30-2q-15-1-16-3 0-1-4-1h-3v-1h6v-1q1-1 1-11 1-10-4-11l-4-1h-1q-1 0-8-2z" fill="#8b1201" stroke="#8b1201"/>
  <path d="m625 637v-1h8q1 0 1 2v2q0 1-1 1v1h1t0 1l-1 3-1 2v6h1l17-2q18-2 20-3t2-2v-1l1-4v-5h3v11q0 2 0 2 0 1-2 4t-14 3l-11 1h-2l-1 1-1 1h-1l-1 1h-1v2l-1 1h-1q-2 1-4 4-2 4-1 12t1 10q2 2 2 2l2 3q1 3 1 5 1 3 0 4l-1 2v1t-1 2v2h-15q-7-1-14-1l-8-1v-1t-1 0q1-1 1-2t-3-3q-3-1-33-3l-31-2h-1q-1 0-23-3l-22-3h-1t-13-2-25-4l-12-1h-1q-1-1-2-1t-9-2q-8-3-10-8l-2-6v-10q0-9 1-12l1-3v-1h1v-1h7q4 0 4 1 1 2 16 3 14 1 30 2t30 1q13 0 17 0t4 1 19 2q18 1 36 1 19 2 20 1 2 0 2-1t1 0q0 1 5 1t5-1q0-2 1-2t2-2q2-2 0-2-2-1-2-2t2-2q2 0 2-2 0-1 3-2 3 0 3 0t0-1h1z" fill="#760b00" stroke="#760b00"/>
  <path d="m600 616h4t4 1h3q0 1 0 1h-1v1h1v1h-1v1l1 1v1h-1q0-1-6-1-5 0-8-3l-2-2v-1q1-2 2-1 0 1 4 1z" fill="#c49b8d" stroke="#c49b8d"/>
  <path d="m758 924h3t-2 1q-1 1-6 3l-5 3v-1l4-3q4-3 6-3z" fill="#cc7a75" stroke="#cc7a75"/>
  <path d="m187 426l-2-1 4 3q3 2 5 4 2 1 2 2v1l1 1v1h1l1 1h1v-1h1v-1h1v-3l1 3q1 2 5 2t5 0v1l-1 1q-2 0-2 4v4h-1q-1 0-2 1 0 1-1 1-2 1-6 9t-5 9l-1 1v3l-6 6q-5 6-5 6h-1v3q0 3 1 4h1v1h-5l-1-1-1-1h-11v-2h2v-1l1-1v-1h1q1-1 4-4 4-3 8-11 4-7 5-14l1-7h1v1h1q1 0 1-4l1-3v-2q0-2-2-7-1-6-3-8z" fill="#ccc2b5" stroke="#ccc2b5"/>
  <path d="m732 674v5h1v1l-2 4q-1 3-2 3t-1-1-2-2q-1 0-6 0t-8 2q-2 3-6 6l-4 2v-5h1v-1h1v-1h1v-1h1v-1t3-3q3-4 6-8l4-3 3-1q2 0 4 1 3 1 4 2t2 1z" fill="#da4c22" stroke="#da4c22"/>
  <path d="m383 558v-1h1q1 0 1 1 1 1 1 2v1l4 1q4 2 5 0t2-2h1v4l-1 1q-1 1-2 2h-6l-3-1-1-2q-1-2-1-2v-1q0-1-1-3z" fill="#855225" stroke="#855225"/>
  <path d="m394 586l1-1h1v3h1l5 4q4 4 5 4t3 0h4-1v1h-1v1l-1 1q0 1-2 1h-3q-2 0-4-2l-3-2h-1v-1l-1-1q-1-1-1-2v-1q0-1-1-3l-1-2z" fill="#aa6d41" stroke="#aa6d41"/>
  <path d="m526 704v-2h12l26 3q26 3 30 3h4l1 8q1 9 1 12 2 2 0 6t-3 13v9l-3 14q-2 13-2 23t1 11v2t1 1l1 9q1 9 0 22v12q-1 0-1 0t-5 3-8 5l-3 2-3 4q-3 3-5 11t-2 17-1 10v2q-1 0-1 0l-6 1h-8q-1-1-3-1t-5-2q-2-2-6-3l-4-1q-1 0-1-1-1 0-1-9v-10t2-11l1-11q1 0 0-11v-13q-1-1-4-4l-3-3h-2q-2-1-6-1-5-1-6-2v-4q0-3 1-12l1-8q1 0 2-7l1-7v-1l1-1v-1q0-1 1-3l1-3q1-1 2-5l2-5v-13q0-12 0-12v-27q0-6 0-9z" fill="#fefbfa" stroke="#fefbfa"/>
  <path d="m776 935v1q0 1 0 2 0 0-7 4-6 4-11 6l-6 1 12-7q12-7 12-7z" fill="#be8c7a" stroke="#be8c7a"/>
  <path d="m152 610v2q0 2 0 3v1h1v-1h1v-1h1v-1q1 0 2-1h1v1q0 1-2 3-2 1-3 2 0 1-9 7-9 7-18 10t-24 3-17 0h-2l-1-1-2-1h-1v-1l-1-1v-2h1v-1h1v-1h14q13 0 16-2 4 0 12-4l9-2 1-1 1-1h2v-1h1q1-1 8-4l6-3 1-1 1-1z" fill="#d0c1b3" stroke="#d0c1b3"/>
  <path d="m695 481v-1h9v2h-1l-1 1-2 1-4 2q-4 2-5 8t-1 8 0 2 0 12q0 9 0 12t0 3q2 0 2 4t0 7v2l1 1 1 1v1l-1 15q-1 14-4 24t-5 14-4 8q-4 3-4 5-1 3-3 7t-4 6q-3 1-3 1v1h-1v1h-1v1h-3v1h-1v1h-2q-2 0-6 1l-3 1h-3v1h-3v-9q1-8 1-14 2-6 3-30l2-24-1-1-1-1h2v-2q0-1-3-1-2 1-1-15t1-17 2-11q2-11 2-10 1 0 2-4t-3-6q-5-1-5-8 0-6 0-10-2-3-1-4 1-2 1-7t1-5q1-1 1-3v-2h-1v-1h-1v-1l1-1 1-1v3l1 1q1 1 1 2v1h2v-2q0-2 2-2 3-2 5-2 1 0 2-1 0-1 1-1t1 1q1 1 1 0v-1l1-2q0-1 1-1t2 5q1 6 2 5 1 0 2 1 0 2 1 1t2 3 1 8q0 3 0 4-1 2-2 2t1 6q1 6 4 7 2 1 6 1 4-2 7-2 4-1 4-2t1-1zm-25 2v-1l2 1q1 1 0 1h-2v-1z" fill="#590600" stroke="#590600"/>
  <path d="m379 952l20 4q20 4 20 3h1v1h3l2 2q1 1 2 2 1 2 0 2t-1 1h-3q-3-1-5-1h-1t-8-1l-8-1h-2q-2 0-5-1h-3l-1-1h-2q-3 0-5-1l-2-1h-1v-3h-1v-1h1l-1-1h-1v-2l1-1z" fill="#d6724d" stroke="#d6724d"/>
  <path d="m684 764h9-6q-1 1-1 13v12l-2 7q-2 6-2 7v1l-1 6q-1 5-1 12v8l1 3q1 3 1 4 0 0 1 3v2h-1v-2q0-1-1-2-1-2-7-2h-8q-3 0-4 2l-1 1h-1q-2 1-4 1t-3-11-2-14l-1-3v-14h1v1h1v3l3 4q3 4 5 5t2 1v1h1v1h7v-1h1v-1h1v-1l-1-1v-1h-2v-1q-1-2-1-3t-1-9q-1-9 0-12 1-4 4-12t13-8z" fill="#e16f5c" stroke="#e16f5c"/>
  <path d="m343 412v-1l1 2q2 1 4 2 3 0 3-1t9 0q10 2 13 2 3 1 3 0 2-2 2-2l-1 7q-1 7 0 15v9h2v4h-1v4h-1v1h-1v-4q0-3-1-3l-1 1h-1q-1 0-3 0-3-2-15-3l-12-2v-1q1-1 1-8v-14q0-7-1-8z" fill="#fa5039" stroke="#fa5039"/>
  <path d="m596 604v-3l2 5q2 4 3 6 1 0 4 1t5 1h7-1v1h-1v1h-2l-1 1h-4q-4-1-4-1h-1q-1-1-3-4l-2-2-1-1q-1-1-1-5z" fill="#8e6240" stroke="#8e6240"/>
  <path d="m217 515l7 1q8 2 16 2h7t-1 1l-2 1h-4q-5 0-7 1t-18-1h-16v-1h1v-2h1l1-1h8q6-1 7-1z" fill="#a99f99" stroke="#a99f99"/>
  <path d="m684 248h1v6l1 4q0 3 2 6 2 2 2 2v2q0 2 1 2v3h-1q0-1-3-3t-3 0q-1 1-2 1t-2-10l-1-10 2-1q2-2 3-2z" fill="#9a4c1a" stroke="#9a4c1a"/>
  <path d="m248 581h7q0 1 1 1v1q0 1-1 1h-5q-5 0-8 0h-2v-1l4-1q4 0 4-1z" fill="#fcbe9c" stroke="#fcbe9c"/>
  <path d="m412 640l4-1 1 1q1 0 1 1h-1v1h-1v1l-1 3q-1 3-1 12v20q0 9 1 10h-1q-2 0-6-2-3-1-3-2l-1-1v-11q0-10 1-18 1-9 1-11 1-1 6-3z" fill="#e8c3ae" stroke="#e8c3ae"/>
  <path d="m349 510h11l1 1q1 1 1 3 0 3-1 3v1h2l3 1q2 1 3 2v1h-3q-2 0-2 1 0 0-8 5-8 4-28 5-19 1-21-4l-2-4v-1q1-2 1-5v-3h-2q-2 0-4 2h-2l-2 1h-2v-1h3v-1h1v-1h1v-1h1v-1h1l25-1q24-1 24-2-1-1-1-1z" fill="#d9d1cc" stroke="#d9d1cc"/>
  <path d="m440 686l-2-1 12 1q12 2 25 4t13 2h1v1q0 1-5 1-6 1-6 4-1 2-2 2h-1v-1q1-1 1-1v-1h-1v-1h-6l-7-1q-6-1-17-2l-11-2v-1h-1v-1h1v-1h3l2-1q2-1 1-1z" fill="#bd3609" stroke="#bd3609"/>
  <path d="m678 676h3l7 1q8 1 8 1l1 1v1h-1v1h-1v1h-1q-1 0-2 1h-3l-2-1h-3q-2 0-6-3-4-2 0-3z" fill="#f8d3cd" stroke="#f8d3cd"/>
  <path d="m791 550l1-3 1 3q1 4 1 16v12l-1 4q-1 5-1 5v-1q0-2-1-2v-2q-1-1-1-6l-1-4v-5q-1-5-2-12t0-5 2 2 2-2z" fill="#d16938" stroke="#d16938"/>
  <path d="m688 251l2-1 1 2q1 1 2 1v1q1 2 1 4v3t-2-1q-2-2-2 2v4t-2-2q-2-3-2-6l-1-4 1-1q1-1 2-2z" fill="#b78666" stroke="#b78666"/>
  <path d="m202 469l6-6-2 8q-3 7-5 10-1 2-2 2v1h-1v8h-13q-1-1-1-1v-1t0-2q0-1 1-1 1-1 5-6l4-5h1q1 0 7-7z" fill="#886b48" stroke="#886b48"/>
  <path d="m378 830l1-3q1 0 1 1v2q0 1-1 4l-1 2v16h-1v-6q-1-7-1-10v-3t2-3z" fill="#f77749" stroke="#f77749"/>
  <path d="m161 572l1-6 3 2q3 2 3 1 0 0 1 2v2h2v1l1 1v1h2v2l-1 6q-1 6-7 16-6 11-7 11 0 1-1 1 0 0-1 0v1h-1l-1 1h-1v1h-1v1h-1v-1q0-1 0-3v-2l-1 1-1 1-6 3q-7 3-8 4h-4l-2 1h-5v-2h2v-1h1v-1h1v-1h1v-1h1t3-3 10-10q6-7 8-10l1-3h1t0-1v-1t3-4q3-3 4-10z" fill="#8d7a63" stroke="#8d7a63"/>
  <path d="m682 842h1v4q1 5 1 6v1h1l1 1h1v-1h1v-1h6v2h-1v1h-1v1h-1q-1 0 0 1h1q0 1-2 1-3 2-8 2l-6 1v-1t1 0h1t0-1v-1t2-6l1-5v-3q1-2 1-2z" fill="#db816f" stroke="#db816f"/>
  <path d="m715 268v-1h15q0 1 0 1h1l1 2q2 1 2 2v2h-2t-4-2h-5l-3-1q-3-1-4-1l-2-1t1-1z" fill="#975327" stroke="#975327"/>
  <path d="m768 364h3l5-1h14l8 1h2q2 0 2 1-1 1-4 1-4 0-6 2-1 0-12-1l-11-1-1-1h-2q-1-1-1-1h3z" fill="#d0846b" stroke="#d0846b"/>
  <path d="m546 364h1l-1 6q0 5-1 8v4q-1 0-3 18-2 17-15 17h-12v-1q-1-1 0-14l1-14 1-4 1-3v-3q0-2 1-8l1-5 12 1q13 0 13-1t1-1z" fill="#cc9108" stroke="#cc9108"/>
  <path d="m415 601v1q-1 1-1 2-1 2-6 2-6 0-8-1t-2-2v-1h4q3 0 4 0h5q3-1 4-1z" fill="#b53d1f" stroke="#b53d1f"/>
  <path d="m262 517h12q4 1 8 1h5l1 1h2v1h-5v1h1v1h1q1 0-1 1t-2 1h-8q-9 0-18-2h-8l-3-1-3-1 2-1q1-1 1-1h3q4 0 12-1z" fill="#b2a8a4" stroke="#b2a8a4"/>
  <path d="m512 239h1v1q0 2 1 2 2 0-1 4t-9 8l-6 3h-1v-1h-8v-1h1v-1h2l2-1 1-1 6-4q7-4 8-6 2-3 3-3z" fill="#9a4d1f" stroke="#9a4d1f"/>
  <path d="m177 547h1l2 2q2 2 2 4t-2 3-2 2-1 0v1q-1 0-1 1 0 0 0 1h-1v-3q-1-2-5-6l-5-3 5-1q6 0 7-1z" fill="#826e50" stroke="#826e50"/>
  <path d="m382 824l3-3h5l4 1h7v2h-8q-6 0-7 0-2 0-2 1t-2 3l-2 1v-1q0-1-1-1v-1q1 0 3-2z" fill="#f66c5c" stroke="#f66c5c"/>
  <path d="m537 699l-2-1 31 2q30 2 33 3 3 2 3 4v2h-1q-1-1-2-1h-5q-4 0-30-3l-26-3h-4l2-1q3-1 1-2z" fill="#a3360b" stroke="#a3360b"/>
  <path d="m706 542v26l1 4 1 3v2h1v7q-1 0-1-2v-1h-2l-1 11q-1 10-3 13t-3 4q-1 0-5 9-4 8-6 11t-2 4v1h-1v-2q0-1-10-1l-10 1h-5v-1h1v-1h3v-1h1v-1h1v-1t3-1q2-2 4-6t3-7q0-2 4-5 2-4 4-8t5-14 4-24l1-15 1-1v-2h2v-1h1v-1h1l1-1q1-1 3-1 1 0 2 1t1 1z" fill="#8e3f1a" stroke="#8e3f1a"/>
  <path d="m415 422v-2 1q0 1 7 2 6 1 15 1h12q3 0 4-1v-1 2q-1 3-9 17t-9 15l-1 1v2l-1 1v1h-1l-1-1h-1v-1h-1v-1h-1v-2q0-2-6-16-6-15-7-18z" fill="#be2c02" stroke="#be2c02"/>
  <path d="m722 210l3-2h11t-4 1l-5 1v1l-1 1v4q0 3 2 5 2 1 4 2 2 0 2-1t1-1h1v1q0 1-2 2l-1 2h-1t-2 0q-3 0-7-3-3-3-3-7 0-5 2-6z" fill="#bfb0b2" stroke="#bfb0b2"/>
  <path d="m385 914l-1-2 4 1q5 1 6 1h1l1 1 1 1h1v3l-1 1v1h-1l-1 1-1 1q0 1-1 1-1 1-2 2 0 1-5 5-6 4-6 6-1 2-3 3-2 0-2 1h-1v8h1v1h1l1 1 1 1h1l-1 1h-2l-2-1h-1l-1-1-2-1h-2l-1-1-1-1v-5q0-1 1-3t2-4q1-1 5-5 3-3 6-7l2-4q1 0 1-1h1q0-1 0-1 1 0 1-1h1q0-1 0-1 0-1-1-2z" fill="#f06958" stroke="#f06958"/>
  <path d="m534 836v-2h1v11q1 11 0 11v-4q-1-3-1-2h-1v-1q1-1 1-6v-7z" fill="#fbb1a0" stroke="#fbb1a0"/>
  <path d="m366 522h5q2 1 2 2t3 2q2 2 3 2 0 0 1 1h2q0 1-8 1t-11 3q-3 2-5 7l-2 4h-9q-9 0-29-2l-19-1h-2v-1h1v-2h2v-1l1-1 1-2v-3l1-1 1-2v-3h1l2 4q2 5 21 4 20-1 28-5 8-5 8-5 0-1 2-1z" fill="#bcb1a9" stroke="#bcb1a9"/>
  <path d="m662 632h3l10-1q10 0 10 1v3h-13q-4 1-14 1-11 1-11 0t1-2h1l3-1q4-1 6-1h4z" fill="#bf7c68" stroke="#bf7c68"/>
  <path d="m217 576v-4l1 3q0 3 8 3h7l1 1q2 1 2 1h-2q-2 0-4 1h-6q-3-1-5-1t-2-4z" fill="#fbaa7c" stroke="#fbaa7c"/>
  <path d="m390 484v-8l18 1q17 1 22 2h8l3 1 17 1q16 2 16 9 0 6 1 20v16l-1 1v1h-2q-1 0-36-3l-35-3h-1t-4-2q-3-2-4-5l-1-2v-5q-1-4-1-10v-14z" fill="#415866" stroke="#415866"/>
  <path d="m275 486l2-2 9 1q9 1 9 1 1 0 1 0v1h-9q-9 1-12 1h-3q0-1 3-2z" fill="#fd6d78" stroke="#fd6d78"/>
  <path d="m736 208h6t0 3q0 2-1 2-1 1-3 4l-2 4q-1 1-1 1h-1t-2 0-4-1q-2-2-2-5v-4l1-1v-1l5-1q4-1 4-1z" fill="#ddd0d4" stroke="#ddd0d4"/>
  <path d="m427 823h2v1h1t3 1h3q0 1-4 2l-4 1-2 1-1 1h-9q-1 0-1-1l4-1q5 0 5-2 1-2 3-3z" fill="#d33f1c" stroke="#d33f1c"/>
  <path d="m666 836h8q6 0 7 2 1 1 1 2v2t-1 2v3h-1q0-1-1-4-1-4-8-4l-7-1-2 1h-1l1-1q1-2 4-2z" fill="#d5422c" stroke="#d5422c"/>
  <path d="m482 521v13q0 1-40-2l-40-2v-1l-1-2-1-2v-2h1v-1l35 3q35 3 36 3h2v-1l1-1v-1l2-2q2-3 3-3t2 1z" fill="#dbc4b9" stroke="#dbc4b9"/>
  <path d="m234 580h4q1 0 6 1h4q0 1-4 1l-4 1h-2q-3-1-7-1l-4-1h3q2-1 4-1z" fill="#fcb996" stroke="#fcb996"/>
  <path d="m216 460v1l-3 9q-3 9-7 15-4 7-6 7t-2 0v-8h1v-1q1 0 2-2 2-3 5-10l2-8v-1t2-4l2-4v-2q1-1 2-1t1 3q1 4 1 6z" fill="#965c2b" stroke="#965c2b"/>
  <path d="m560 482h1l13 1q13 1 14 1h1t1 3q1 2-2 2l-4 1h-1v1h-1q-1-1-21-2l-20-2v-1h5v-1h-1v-1h7q7-2 8-2z" fill="#c29e8c" stroke="#c29e8c"/>
  <path d="m131 548l4 1q0 1 1 1 0 0 0 1h1l3 2q2 3 2 3h1v1l1 1v3l1 1 1 1v1l-1 7q-1 7-4 15-3 7-4 8l-10 10q-9 9-10 10l-3 1q-4 1-6 2l-1 1h-2v1h-7q-8-1-12-1-5-2-11-6l-7-4v-1h-1v-1h-1v-2h-1v-2l1-3v-1h5l3 2q3 2 4 3l1 1h2l1 1h1v-1l-1-1v-2l-1-1q-1-2-1-6v-12q1 0 1-1v-1q1 0 3-5l2-5h1v-1h1v-1h1v-1h1v-1h1v-1h1q0-1 2-2 2-2 9-6 7-5 15-6 9-1 9-2t4-1z" fill="#fbfaf9" stroke="#fbfaf9"/>
  <path d="m682 223l1-3 1 2q0 2 1 3v7q-1 5 0 10v6h-1v1h-1q-1 1-3 1l-1 1v-11q-1-1 0-5v-4h1v-3q0-2 2-5z" fill="#7d3d1a" stroke="#7d3d1a"/>
  <path d="m479 917v1h-10q-1 0-15-3l-13-3h-7v-2q-1-1 22 2 22 4 23 5z" fill="#df4022" stroke="#df4022"/>
  <path d="m524 769l1-4h1l-2 5q-1 4-2 5v-1q0-1 2-5z" fill="#f9b89c" stroke="#f9b89c"/>
  <path d="m746 361h2q3 1 4 1h4l2 1 2 1h5t1 1l2 2q2 2 1 5 0 2-1 2h-1v1h-1v1t-1 2v1q-1 0-1 1v2h1v2h1l1 1 1 1h1l1 1 1 1h7q2 0 2-1t3-3q3-1 7-5 4-3 11-3t8 0q1 1 1 2v2q0 2-2 2-1 0-1 2 0 1-3 1-4 1-7 3t-3 6v3h-1v1h-1v1h-1v1h-1v2h1v1h1v1h1l1 1 1 1h2v-1h1v-1q0-2 4-5 5-3 7-2 3 1 4 3 2 2 3 2h1l1 7q2 7 2 21v13h1v3h-1t0 1q-1 1-2 3l-2 3v1q0 2-2 4 0 3-5 8l-4 5h-1q-1-1-3-1t-2-1-3-2l-2-1v2h-1v1h-1v1h-2v5h1v1h1v1h1v1h5q5 0 7-2 1-3 2-3v-1h3v-1h1v-1h2v6l-1 1v2h-1v1q-1 0-4 6l-4 5h-1q0 1 0 1-1 0-1 1h-1q0 1 0 1h-6q-3 0-5-1t-3-2l-2-1v-1h-1v-1h-2v-1h-1v-1 8l1 1 1 1v1h1q0 1 1 1h6q5 0 6 0h1v5l-2 19q-3 20-3 22v3l-1 3q-1 2-3 2-1 0 0 5 0 5 1 10v5l-1 1v3l-1-2q-1-3-1-4l-2-2v-1h-1v1h-4v1h-1v1l-2 12q-2 12-2 12 0-1-2 2-1 2-3 2-2-2-3-2h-1v6l1 7v5h-4v-1h-1v-1h-1v-1l-1-1q-1-1-2-4l-1-4-1-2v-1h-1l-1 1h-1v2l-1 1-1 1v3q-1 3-2 4-1 0-4 3-2 3-3 3v1h-1v6l3-1q3-1 3 0t1 1v1h1l-1 3q-1 4-3 8t-2 9q-2 5-2 7v1l-1 2-1 2v-1h-1l-1-1q-1 0-2-3 0-2-1-1l-1 1q-1 0-2 0t-2-1l-2-1-3 7q-3 7-4 9v1h-1q0 1-3 2t-11 3q-8 1-8 2t-8 1l-7-1v1h-1q-1-1-6-1-4 0-4-1t-4-1h-10q0-1-1-1v-1q-1 0-1-2-2-1-5-2l-3-2h-5l1-1v-2h1l1-1h1l1-1 1-1h2l11-1q12 0 13-2t2-6l1-4v2q0 2 1 2 1-1 5-7l3-7q1 0 1-1v-1q0-1 2-4t6-11q4-9 5-9 1-1 3-4t3-13l1-11h2v1q0 2 1 2v4h2v-1l1-1v-2l1-1q1-1 3-5 2-3 2-8 2-6 2-33l1-27q1 0 1-10 0-11-1-12-1 0-1-1v-1h1q1 0 1-4v-3h-2q-1-1-2-1-2 0-6-8-4-7-5-8-2 0-2-1t-1-1-3-5q-3-5-1-11 0-5 2-6 1 0 1-2 1-2 1-4 2-1 2-6 0-6 2-17t2-13q0-1 0-2 2-2 0-3-1-1-1-3t1-2q2 0 2-2t-1-6l-1-5 3-4q3-3 6-5 3-1 4-2t1-1v3l4-1q3-1 6-1 2-2 5-1 3 0 4 1 1 0 2 0t1-1zm40 189q0-2 0-2t0 1 0 1q0 0 0 1 0 0 0-1z" fill="#a61700" stroke="#a61700"/>
  <path d="m376 859v-1h1v4l1 5v6q0 6 1 7v2h-1v2h-1v1h-1v2l-1 1v1h1l1 1h-2q-2 0-3-1h-2q0-1 0-2v-1q1 0 2-1 0-1 2-11l1-11v-1q1-2 1-3z" fill="#ea5e30" stroke="#ea5e30"/>
  <path d="m417 823l2 1q3 2 3 3v1h-12l-2-1h-1v-1l5-1q4-1 4-1 1 0 1-1z" fill="#f1b7ba" stroke="#f1b7ba"/>
  <path d="m730 266h1q1 0 1 1t1 1 1-1l2 4q3 3 4 4 1 0 1 1 1 1 1 1v2q-1 1-3 0h-3v-1q0-1-1-2l-1-2v-2q0-1-2-2l-1-2h-1t0-1v-1z" fill="#b48773" stroke="#b48773"/>
  <path d="m762 357l4 1q3 0 4 2 0 1 1 1 1 1 5 1h5v1h-5l-5 1h-11l-2-1-2-1h-2l-1-1-1-1h13v-2h-1q-2 0-2-1z" fill="#d4aa96" stroke="#d4aa96"/>
  <path d="m201 422v-1h1l1 1h1v1h1v1h1v1h1v1h1v1l3 3q3 4 3 8 2 3 2 4v1q-1-1-2-2l-1-1v-2q-1 0-5 0t-5-2l-1-3v-3q0-4-1-4v-1h1v-1l-1-2z" fill="#d3cac4" stroke="#d3cac4"/>
  <path d="m526 740t0 12v13h-1v-3q1-2 1-12v-10z" fill="#f7b69e" stroke="#f7b69e"/>
  <path d="m80 595v-4 3q0 4 1 6l1 1v2l1 1v1h-1l-1-1h-2l-1-1q-1-1-4-3l-3-2h-3t3-1h4q1 1 3 1 1 1 2-3z" fill="#d5cac3" stroke="#d5cac3"/>
  <path d="m700 299h1l-1 15q-1 16 7 18t7 2-1 1h-11q-12 1-14 1-1 0-1 4t-7 4l-6 1v2h-2q-3 0-3-1t-3-1q-4 0-4 1t-7 1q-7-1-19-2l-13-1 3-1 3-1h7q6 0 8-1h2v-1q0-1 1-1l1-1-1-2-1-3v-1h-1v-1h-1v-1h1l1-1 2-1 2-1q1-1 4-1h2l8-1q7-1 18 0 12 1 14-12t3-13 1-1z" fill="#9f1806" stroke="#9f1806"/>
  <path d="m610 504v-19h1v1h1l1 5q1 5 5 5t4 1q1 1 3 3 3 1 3 14 0 12 1 20v13q-1 6-1 10t-9 4q-9-1-63-6l-54-5v-1l-1-1v-1h1v-1h2v-1h1v-1h1v-2l1-2 1-1v-1q0-1 1-2l1-1v1q1 2 5 2h4l41 4q40 4 45 4h5v-42z" fill="#c12809" stroke="#c12809"/>
  <path d="m753 600l1-1h1v1l1 2 1 4q1 3 2 4l1 1v1h1v1h1v1h4v-1l1-1v-1h1l2 1h2v1h1v1h5v-1h1v2l-4 1q-4 2-4 4 0 1-1 1t-8 13q-8 12-8 16-2 5-2 5 0-1-2-1h-2v2h-4l-1 1-1 1v-2h-1v-1h-1v-3q0-2 2-7 0-5 2-9t3-8l1-3h-1v-1q-1 0-1-1t-3 0l-3 1v-6h1v-1q1 0 3-3 3-3 4-3 1-1 2-4v-3l1-1 1-1v-2h1z" fill="#cc5c31" stroke="#cc5c31"/>
  <path d="m542 587l2-2v3q0 4 1 4t2 6 5 10 3 5 1 1q2 1 2 2-1 2-2 2h-2q-3 0-6-2-2-1-2-2t-1-1q-1-1-3-4t-2-9l-2-6h1v-1h-1v-1t1-1v-1h1t2-3z" fill="#bc9281" stroke="#bc9281"/>
  <path d="m684 634h2v1q0 1-2 3-2 1-4 6-4 6-4 6v-13h-1v-2h5q4-1 4-1z" fill="#ac5c4f" stroke="#ac5c4f"/>
  <path d="m721 510l-1 27q0 27-2 33 0 5-2 8-2 4-3 5l-1 1v2l-1 1v1h-2v-14l1-4v-2q0-3 2-16 0-13 1-30l1-16h1q1 0 3 1t2 2 1 1z" fill="#9c523a" stroke="#9c523a"/>
  <path d="m400 434h1t1 1v1l1 1 1 1v7h-1v1h-1l-1 1-1 1h-4l-1-1-1-1h-2v-6q0-3 0-4l1-2h1q1 0 2-1 0-1 2-2 1 0 2 1 0 2 0 2z" fill="#a96e5d" stroke="#a96e5d"/>
  <path d="m783 920l1-2v2q0 3 1 7v4q0 1-5 4l-4 3q0-1 0-2v-1h1q1-1 2-2t2-3q1-1-1-4l-1-2q1 0 1-1v-1h1q1 0 2-2z" fill="#d17e63" stroke="#d17e63"/>
  <path d="m148 510h4l1 1 1 1h6q4 0 6 1h1q0 1 1 1h1l-1 1q-2 1-2 2v1h-1q-1 0-3 0t-2 1-1 1-8 2l-7 2h-1v1h-1v2t-1 1h-3v-1t0-1v-1h-1v-1h-1v1h-1v1h-1v-2h-1l-1 1v-6l1-1 1-2v-4l5-2q4-2 5-2 2 2 4 2z" fill="#9b8c7d" stroke="#9b8c7d"/>
  <path d="m148 430l4-2v1q0 1-1 1l1 1q1 1 2 1v1q0 1-2 1-2 1-3 3t-2 3q-1 0-1 0v1l-6 5q-6 4-6 5h-1v1h-1v1h-1v1h-1v1h-1v-1l1-2v-3h1v-1h1v-2q0-1 3-4 3-2 6-7 3-4 7-5z" fill="#ad907c" stroke="#ad907c"/>
  <path d="m492 186l1 2q1 2 0 2h-1q-1 0-6-1l-6-1 2-1q1-1 5-1t5 0z" fill="#efdbb7" stroke="#efdbb7"/>
  <path d="m613 252h-1t0 1q-1 1-1 1h-1q-1 0-5 2t-15 2h-12l-6-3q-5-3-8-5t-7-10q-5-7-5-11-2-4 0-16 0-12 5-18 4-7 9-11t11-6 17-2 17 4 11 10q6 7 8 14t0 17q0 10-5 17-4 8-8 11-3 3-4 3zm-11-58l4 2h1q1 0 1 0v1t1 1q1 0 1 0v1l3 5q3 5 2 14-1 8-2 10t-1 2q0 1-1 1v1q-1 0-3 2t-6 3q-3 1-6 3-4 0-10 1-5 1-8-1-4-2-9-8-5-7-6-14-1-6 2-12 2-6 3-6t2-2q0-1 1-1 1-1 1-2 1-1 4-2t13-1 13 2z" fill="#ab8e79" stroke="#ab8e79"/>
  <path d="m429 812l1 4q0 5 0 6 0 0 0 1h-3q-2 1-3 3 0 2-5 2l-4 1h-1l-2-1h10v-1q0-1-3-3l-2-1v-2h1l1-1h6q2 0 3-3v-4q0-1 1-1z" fill="#e6856c" stroke="#e6856c"/>
  <path d="m709 159l-1-1 12 5q12 5 14 5h1t1 1l1 2q1 2 5 7 2 4 3 6t0 2-1 6q0 7-1 7t-1 1q0 2 0 4v1h-1v-1q-1 0-1 0v2h-10q-1 0-4-4l-3-4h-1v-1h-1v-1h-1v8h-4v-1l-1-3q-1-3-1-4 0-2-2-2h-8v-1h1v-1h1t1-1q1 0 2-15 1-16 0-17z" fill="#8d4516" stroke="#8d4516"/>
  <path d="m313 504l3-1h6v1h-2v1h1v1h1l2 1 3 1h-5q-5 0-8-1t-3-1q-1-1 2-2z" fill="#d2977d" stroke="#d2977d"/>
  <path d="m478 256l-3-2h5q5 0 8 0h2v1h-1v1h8v2h-13q-2 0-6-2z" fill="#b0643c" stroke="#b0643c"/>
  <path d="m773 916q1 1 1 2 0 0-2 0-2 1-2 2t-4 2q-3 0-3 1t-1 1h-1v-1q1-1 1-1v-1l6-3q4-2 5-2z" fill="#d77d72" stroke="#d77d72"/>
  <path d="m219 565l1-3h6q4 1 4 1v1h10q10 0 12 0h3l9 1q8 1 12 2h4q0 1 0 1h1l3 2q4 2 6 2h4q1 0 3 1l2 1h2v2h-1v2h-1v1h-1v1h-1v1h-1v2h-1q-1 1-1 1t-5 2q-4 2-12 1l-8-1t-1-1l-1-1h-2q-2 0-5-1l-4-1q0-1-1-1v-1q-1 0-8-2l-8-1q0-1-9-1l-10-1v-2l-1-1q-1-2-1-4v-1t1-2z" fill="#ce2606" stroke="#ce2606"/>
  <path d="m382 362h1v1q-1 1-1 4v3q-1 0-3 1t-3 0-6 1q-5 1-5 0-1-1-3 0-2 2-5 4-4 2-4 3t-1 1h-1v1h-1v1h-1v1h-1v-2l-1 1v1h-2v-1l1-1v-2l1-3q1-2 2-6l1-4q1 0 1-1h1v-1h15q15-2 15-2z" fill="#fc5c4e" stroke="#fc5c4e"/>
  <path d="m640 424h4v10q2 10 2 12v1l-1 1-1 1v1h1v1h1v1q0 1 1 1l-1 1q-2 2-2 7t-1 7q-1 1 1 4 0 4 0 10 0 7 5 8 4 2 3 6t-2 4q0-1-2 10-2 10-2 11t-1 17 1 15q3 0 3 1v2h-2l1 1 1 1h-5v1h-1v1h-11v-1q0-1-2-9l-1-9v-7q-1-8-1-20 0-13-3-14-2-2-3-3 0-1-4-1t-5-5l-1-5v-2h1v-1h1v-1l1-2v-1h1v1h1t1-3q0-2 3-1 2 2 2 1 1-1 3-24t4-25l2-2v-1l3-1q3 0 5 0z" fill="#5b0700" stroke="#5b0700"/>
  <path d="m727 342l2-3 1 6q2 5 4 6h2q1 1 1 1h-3q-3 0-6-1h-4v-3q0-1 0-2 0 0 3-4z" fill="#a36f4e" stroke="#a36f4e"/>
  <path d="m230 539h1q0 1-2 1t-14 0-17 1h-5v1h-3v2q1 2 2 4 2 1 2 4v2h-2v-2h1v-1h-1v-1h-1l-1-1q-1-1-6-1l-5-1q0-1-13-3l-13-2h-2l-1-1-1-1h-1v-1l-1-1v-1h1l1-1h15q10 0 17 0h7l1-1h8q7-1 19 1t14 3z" fill="#c2b1a2" stroke="#c2b1a2"/>
  <path d="m518 784h1l-1 7q-1 7-2 7v-4q0-3 1-6v-3h1v-1z" fill="#f4a182" stroke="#f4a182"/>
  <path d="m692 200h2q0 1-2 3-2 3-3 6-1 4-4 7l-2 4-1 3q-2 3-2 5v3h-1v-4h-1l-2-1v-3q0-2 0-3-1 0 0-4 0-4-1-4t-1-1 3-5l3-3t1-1h2l1-1 1-1 3-1q2-1 3 0 0 1 1 1z" fill="#631704" stroke="#631704"/>
  <path d="m397 354v-1h4q4 1 10 1h6t3 1q2 0 2 1t-13 1-13-1v-2t1 0z" fill="#f4e1ac" stroke="#f4e1ac"/>
  <path d="m386 406h3l5 2q6 0 11 1h5q0 1-1 1l-1 1v2q1 3 2 3 2 1 2 2t-1 2l-1 1v4h1v1h-2v-1q-1-1-1-1v2q-1 2-3 3-3 1-1 2 0 1 1 2l1 1v4h-2l-1-1-1-1v-2q0-2-1-1v1h-1t0-2q-1-1-2-1-2 1-2 2-1 1-2 1h-3v1h-1q0 1-1-2l-1-3v1l-1 1-1 2v4h-1v1h-1v-3h-2v-1h-1v1h-1v-10q0-11 1-13v-5h1t0-1q1-1 1-1h1t2 0zm21 13v-1h2v2q-1 2-1 1v-1l-1-1zm-7 5v-2h3l-1 1q0 1 1 1t2 0v1q1 0-2 1l-3 1v-3z" fill="#7f1201" stroke="#7f1201"/>
  <path d="m465 425q3 0 3 3 0 2-4 2-2 0-2-2 1-3 3-3z" fill="#813e21" stroke="#813e21"/>
  <path d="m729 932l2-7h1v9q0 3 2 3h3v1q-1 1-5 3l-4 3h-2v1h-1q-1 1-1 1h-1l-2 1-2 1h-4 2v-1h1v-1h1v-1h1v-1h1q1 0 4-3t4-9z" fill="#bd5434" stroke="#bd5434"/>
  <path d="m58 618l-3-3 1 1q2 0 2 1t4 3q5 2 10 6 5 2 8 3 2 1 2 1h-2v1h-1v1h-1v2l1 1v1h-1t-2-2q-2 0-9-6l-7-6t-2-4z" fill="#ded0b6" stroke="#ded0b6"/>
  <path d="m820 446h1l-3 12q-2 12-4 14 0 2-1 2v-4h-2v1h-1v1h-2t0-1-1 0h-2l4-5q5-5 5-8 2-2 2-4v-1l2-3q1-4 2-4z" fill="#d25a24" stroke="#d25a24"/>
  <path d="m714 251h1v3q0 4 3 6t8 4q4 2 4 2t1 0v2h-1q-1 0-8-1h-7q0-1-3-2-4-2-4-3l-1-2h-2v-1h-1v-1h-2v-2h2v-3h1v-1h4q4 0 5-1z" fill="#bc8b6d" stroke="#bc8b6d"/>
  <path d="m231 539l25 2q24 3 32 2t8-1q1 0 1-1h2l2 12q3 12 5 13t2 2v1l-2-1q-2 0-2 2 0 1 1 1v1h1v1h-1l-1-1h-1q-1 0-1 2v1h-1v-1h-2l-2-1q-2-1-3-1h-1t-1-1l-2-1v-1q0-1-4-1h-5q-1-1-1-1h-1v-1h-1t-4-2l-4-2h-14t-16-1l-16-1-1 1q-1 1-1 1h-2l-1 3q-1 2-1 2v-1q0-1-2-2-3 0-18-2l-16-2h-6v-2h5l4-2q4-2 5-2h3v-1h1v-2q0-2-2-3-1-2-2-4v-2h3v-1h5q5-1 17-1t14 0 2-1z" fill="#d5c3b7" stroke="#d5c3b7"/>
  <path d="m462 275v-1l68 4q69 4 75 4t6 1h1v11t-2 2q0 1-23 0h-29q-5 0-50-2l-46-2h-1v-1h-1v-6q0-6 1-8l1-2z" fill="#b29585" stroke="#b29585"/>
  <path d="m535 961l11 1q11 2 11 3v1h-1q-1 0-4 0h-6q-3 0-9-2l-6-1v-1h4v-1z" fill="#b55934" stroke="#b55934"/>
  <path d="m462 292l46 2q45 2 50 2h6v1q0 1-3 3l-2 2h1v1h-1v1h-1v1h1v1h-3v1h-1v1h4v1h-5q-4-1-48-3l-44-4v-5q0-4 0-5z" fill="#a27a5d" stroke="#a27a5d"/>
  <path d="m344 896l3-1 23 3q24 4 24 4h-5q-5 0-7 1t-3 2l-2 1v1h1v1h-1v1h1v1h1v1h-4q-4-1-20-3l-16-2-1-1h-1v-1h1v-1h1v-1h2v-1h1v-2h-1q0-1 1-2 0-1 2-1z" fill="#f63c23" stroke="#f63c23"/>
  <path d="m287 487h9l4 3q4 4 5 6 1 1 2 2 0 0 1 1 0 1-12 3l-12 2h-4v1h-2q-1 1-12 1-12 0-23-2l-11-2h-2v-1h-1v-1h-1v-1l-1-1v-1h1l2-1h1v-1h-1v-1h2q2-1 2-2t12-2q12-2 12-2h17q3 0 12-1z" fill="#d92a0f" stroke="#d92a0f"/>
  <path d="m705 194h4q1 0 1 0t-1 4q-1 3-3 6-2 2-5 10l-3 7q-1 1-2 3l-2 3h-2v-8l3-9q3-8 6-12 3-3 4-4z" fill="#a09096" stroke="#a09096"/>
  <path d="m190 511l1-1 11 1q11 1 15 1h4l-2 1q-1 1-2 1v1q-1 0-7 1h-6t-5-1q-5 0-5-1t-3-2h-3t2-1z" fill="#d1cccc" stroke="#d1cccc"/>
  <path d="m802 491h1l-2 3q-3 2-3 6 0 3-1 3v-5h-1q-1 0-6 0h-5l-1-1v-2h6q7-1 7-1l2-1q2-1 3-2z" fill="#df845f" stroke="#df845f"/>
  <path d="m525 722l1-3v22t-1-7l-1-7v-1q0-2 1-4z" fill="#f3a48b" stroke="#f3a48b"/>
  <path d="m612 294v2q-1 3 1 4 3 0 3 5t-3 6-3 2v1t-1-1q0-1-4-1h-4t-21-2l-21-1v-1h-4v-1h1v-1h3v-1h-1v-1h1v-1h1v-1h-1l2-2q3-2 3-3v-1h23q23 1 23 0 2-2 2-2z" fill="#8e6b50" stroke="#8e6b50"/>
  <path d="m702 849h3v1h3v1t-4 2q-3 1-8 3l-4 1h-1q-1-1 0-1h1v-1h1v-1h1v-2l4-1q3-1 4-2z" fill="#d67768" stroke="#d67768"/>
  <path d="m512 506v-1h1v1h1v2h1l1 1 1 11q1 11 6 12 6 0 7 1h1q0 1-1 1-2 0-1 1t-1 1h-1l-1 1-2 1h-9q-4 0-5-2v-25l1-2 1-2v-1z" fill="#dab8aa" stroke="#dab8aa"/>
  <path d="m552 581l1-1h7q6 0 10 2 3 2 3 2 1 0 1 0l2 5q2 5 1 11t-3 10-6 6-8 2h-4q0-1 0-2 0 0-1-1t0-2-3-5-5-10-2-6-1-4v-3l2-2q2-2 3-2 0 1 1 1h1l1-1z" fill="#bb9684" stroke="#bb9684"/>
  <path d="m343 412v-15 15q1 1 1 8v6t-1-14z" fill="#fdc379" stroke="#fdc379"/>
  <path d="m723 657l3-7 2 1q1 1 2 1t2 0v8q0 9 1 10 1 0 1 2v1h-1v1h-1q-1 0-2-1t-4-2q-2-1-4-1l-3 1v-5q1-2 4-9z" fill="#c64623" stroke="#c64623"/>
  <path d="m382 370v2l-2 15q0 15 0 15 0 1 1 1v1h1q1 0 1 1v1q-1 0-1 0v1t-1 1v3l-1-1q0-2-1 0t-1 3v1t-2 2q0 1-3 0-3 0-13-2-9-1-9 0t-3 1q-2-1-4-2l-1-2v-15q1 0 1-6l1-7h1q0-1 0-1 1 0 1-1h1v2h1v-1h1v-1h1v-1h1q1 0 1-1t4-3q3-2 5-4 2-1 3 0 0 1 5 0 5-2 6-1t3 0 3-1z" fill="#e42607" stroke="#e42607"/>
  <path d="m344 442l12 2q11 2 14 4 2 0 3 0h1t0 1h-1v1h-1l-2 8q-2 8-5 16t-3 10v1h-1q0-1-5-1h-6l-6-1q-5-1-8-1h-3v-1h-1v-1l-1-1v-1h1t0-1v-1q0-1 6-17l5-16h1q0-1 0-1z" fill="#fc5040" stroke="#fc5040"/>
  <path d="m374 448l1-1q1 0 1 3v4h1v-1h1v-4h1l1 9q0 10 1 11t1 1 1 0v3q0 3-1 3t-1 1 1 1 1 10v25h-1q-2-1-2-1h-2q-2 0-8-1l-6-1h-14l-1-1-1-1h-2l2-1 2-1h1v-1q1 0 2-1 1 0 3-4l2-4q0-1 1-3v-2h1q0-1 0-1 1 0 1-1v-1q1 0 1-1v-3q0-2 3-10t5-16l2-8h1v-1h1q0-1 0-1z" fill="#d12109" stroke="#d12109"/>
  <path d="m641 710l5-1h5v1q-1 0-1 3v7q0 3 0 4v1l1 1q1 2 1 3v1h-1q-1 0-2-2-1-3-9-5l-9-2v-7l1-2v-1h7l1-1t1 0z" fill="#c9573a" stroke="#c9573a"/>
  <path d="m681 810l1-6v27q-1-1-2-1v-8q0-7 1-12z" fill="#f3bea6" stroke="#f3bea6"/>
  <path d="m389 818h9q5 0 12 0h6l4 1q3 1 3 1h-4l-1 1h-1v2h-6q-6 0-5 1l1 2v1h-1q-1-1-3-1t-2-1v-1q-1-1-1-1 0-1-3-1h-3l-4-1h-5v-1h-1l1-1q1-1 4-1z" fill="#f5a398" stroke="#f5a398"/>
  <path d="m0 547v-547h913v1094h-913v-547zm660-397h4l22 4q21 4 22 4l12 5q12 5 14 5h1q1 0 1 0v1l8 3q8 4 9 22 1 17 0 19v2l2 7q3 6 3 18v15q0 2-2 7 0 4-3 9t-4 7l-1 3-1 19q-1 19-2 22v8q-1 4-1 4 0 1-5 2-5 2-5 4l-1 3v3q0 4 1 4t1 1h1q1 1 1 1h3t1 0v1l9 2q10 1 11 2h1l4 1q3 0 4 2 0 1 1 1 1 1 5 1h5v1h9l8 1h2q2 0 2 1l5 3q5 4 7 8 2 5 3 6v1q1 0 1 1v1l2 9q2 9 2 28t-1 20v4q-1 1-1 1l-2 10q-2 10-3 13-1 4-2 4v2l-1 1v2h-1v1q-1 0-4 6l-4 5v1q-1 0-1 0 0 1-1 1v1q-1 0-1 0l-1 4q-1 5-2 5l-2 19q-3 20-3 22v3l1 3q1 4 1 16v12l-1 4q-1 5-1 5l-3 9q-3 9-6 14t-4 5l-4 1q-4 2-4 4 0 1-1 1t-8 13q-8 12-8 16-2 5-2 5l-2 6q-3 5-4 7 0 1-2 2-2 2-4 2-3 0-3 1l-1 1v2h-1v1h-1v2h-1v1l1 5q2 5 2 20v15l-1 2-1 3v3l-3 10q-3 11-8 16-4 6-5 6 0 0-1 1t-13 2l-11 1h-5v20l-1 2q-1 3-1 3l-2 7q-2 6-2 7v28l2 2q1 3 12 5 12 2 14 2h1l1 1 2 1h2q2 1 2 2l2 1q3 1 3 2t2 3q3 2 3 3v1t1 0v3l1 3q2 4 2 13t-1 19v9l3 2q3 3 26 6 22 3 23 3v2q1 0 1 0v1l1 2q1 2 2 5v4q1 0 3 4 3 5 12 11 10 5 13 10t3 16-2 17q-2 5-5 10t-10 9q-6 5-13 7t-40 2q-34 0-73-4l-39-4h-8q-8 0-20-2-13-2-37-6l-24-4-1-1-2-1h-3v-1h-9q-9-1-18-1-9-2-20-5l-12-4v-1h-2q-2 0-4-1h-4q-1-1-16 0-14 1-22 2-9 1-8 2t-2 2l-3 1v1h-1v7l2 3q3 3 13 8t12 5h2l1 1 1 1h2v2h-2l-2 1-2 1h-3q-2 0-24-2t-47-8l-25-6h-1l-1-1-2-1h-1v-1h-1v-5h2l2-1 1-1 20-6q19-7 20-7 0-1 1-1h1v-1l1-1v-2h1v-1h1v-6h-1l-1-1h-2q-3 0-5-1l-2-1h-6q-5 0-27-4l-21-4h-2v-1h-1v-3l1-1 1-1h1l1-1 1-1q1 0 5-2 6-3 22-12l17-8q1-1 1-2l2-1v-1h1l1-1 1-1h1v-2h1v-1h-1v-1h-1v-1h-4q-4-1-20-3l-16-2-1-1h-4q-3-1-15-3l-12-2h-3v-9h1v-1h1v-2h1l1-1 2-1 4 2q4 0 5 1t2 1v1l11 2q12 1 14 2h1l23 3q24 4 24 4h14v-1h-1v-1h-8l-4-1q-4-1-9-2l-5-1h-10q-2 0-3-1l-2-1h-2v-2l1-2q1-3 1-4v-2t3-16l2-16v-4q1-3 2-9l1-6v-1l1-2 1-1v-1q0-1 4-4l4-4 1-1q1-1 4-1h9q5 0 12 0h8l4-2q4 0 5-1t1-1v-1q0-1 1-1v-2q1-3 1-4v-4q0-3 1-10l1-6v-6q0-7 0-23v-17q0-1 2-6 2-6 4-14 2-9 4-13t5-5q3-2 15-2h13l1-1v-2h-1v-1h-6l-7-1q-6-1-17-2l-11-2h-2q-1-1-9-2l-8-1h-1q-2 0-6-2-3-1-3-2l-1-1v-11q0-10 1-18 1-9 1-11 1-1 6-3l4-1h1q1-1 2-1 1-1 1-10 2-8 1-10l-1-2h-1q-1 0-8-2l-7-1h-4q-5-1-10-1-4 0-8-2-4-1-4-16l-1-15v-6h-3q-4-1-32-1-27-2-28 0h-2l-3 1h-4l-1-1h-1q-1 0-1 2v1h-1v1h-1v2h-1v1h-1v1h-1v1h-1v2h-1q-1 1-1 1t-5 2q-4 2-12 1l-8-1h-7l-4-1q-3-1-3-1h-5q-5 0-8 0h-2v-1h-2q-3-1-7-1l-4-1h-3q-3-1-5-1t-2-1v-1q-1 0 0-3v-5q1-3 1-3v-1q0-1-2-2-3 0-18-2l-16-2-2-1h-3v1h-1t0 1h-1v9l-1 8-1 6q-1 6-7 16-6 11-7 11 0 1-1 1 0 0 0 1h-1l-2 3q-2 3-11 9-9 7-18 10t-24 3-17 0h-2l-1-1-2-1h-2t-2-2q-2 0-9-6l-7-6t-2-3l-1-2h-1q0-1 0-1-1 0-1-1v-1q-1-2-1-5-2-3-2-17v-14h1v-2q1-1 4-9t9-15l6-6t1-1q1 0 1-1v-1h1q1-1 1-1h1v-1h1v-1t2 0l1-1v-1h1v-1h1v-1h3v-1h1v-1h1t2-2q2-1 6-6 4-6 6-12l1-7v-1q-1-2-4-10-3-7-4-17v-13q1-3 1-6 2-4 7-14 5-9 14-17 9-7 13-7t6 0h2q0-1 1-1l1-1q0-2 3-3t10-1 7 1l11 3q11 2 13 4 1 0 1 1l4 3q3 2 5 4 2 1 2 2v1l1 1v1h1l1 1h1v-1h1v-1h1v-6q0-4-1-4v-1h1v-1l-1-2v-1h1l1 1h1v1h1v1h1v1h1v1h1v1l3 3q3 4 3 8 2 3 2 4v10q0 9 0 9l-3 9q-3 9-7 15-4 7-6 7t-2 0h-19l-1-1-1-1h-11v-2h2v-1l1-1v-1h1q1-1 4-4 4-3 8-11 4-7 5-14l1-7v-1q-1 0-1-1h-1q0-1-4-4-4-4-11-5l-6-2h-3q-3 0-9 2l-6 2t-1 1l-6 5q-6 4-6 5h-1v1h-1v1h-1v1h-1v1h-1l-1 3q-2 2-2 2v1l-1 2q-1 2-1 4v2q0 1 0 1h-1v4q1 4 1 8v3l1 1v1h-1l-2-1h-2l-1-1q-1-1-3-2t-2-2l-1-1v-1h-1v-1h-1l-1-1h-2v11l6 7q7 7 10 7 4 2 8 2t5-1h3q1-1 6-3l4-2 1-1h1l1 3q1 4 1 5 1 1 4 1h3l13 2q14 2 16 2h1l11 1q11 1 15 1h4l23 1q23 1 25 3 2 0 2 1h3q4 1 8 1h5l1 1h1v-1h-1v-1h-1v-1h-1v-3h2l2-1h-2q-2 0-2-2-1-2-4-2h-2v-1l-1-1v-1h-1q-1 1-12 1-12 0-23-2l-11-2h-2v-1h-2q0-1 0-1h-2v-1h-1v-1h-1v-1l-1-2-1-2v-1l-1-4v-4l1-2 1-1h1v-1h18q18 0 26 2 9 2 9 2l9 1q9 1 9 1 1 0 1 0v1l4 3q4 4 5 6 1 1 2 2h2q2 0 5 0h2t2-1q1-1 2-3l1-2 2-3q1-3 2-2t3 1h1l7-1q7-1 15-1h8v-1h-13l-13-1h-2v-1h-1v-5t1 0q1-1 1-1v-1q0-1 6-17l5-16v-1q1 0 1 0v-2q0-1 0-8v-6t-1-14v-16q1 0 1-6l1-7v-1q1 0 1 0v-3l1-3q1-2 2-6l1-4 2-3q1-3 8-3 7 2 14 2h8t0-1h1v-1q1-2 1-10 1-8 6-8h4q0-1-1-2v-2q1-2 1-3l1-1 44 1q44 1 59 2h18l1-1h-6l-7-1q-6-1-29-2-23-2-23-9 0-6-5-7l-5-1-2-1-2-1-1-2v-16q1-16 1-20v-18q0-13-4-14-3-2-4-6t0-10l2-6 4-2q4-2 4-3h1l1-13q2-12 3-35 2-23 76-22t105 3q30 0 34 0z" fill="#fefdfd" stroke="#fefdfd"/>
  <path d="m256 582l-1-1 4 1q4 2 6 2h2l1 1q1 1 1 1h-7l-4-1q-3-1-3-1h1t0-2z" fill="#fbb584" stroke="#fbb584"/>
  <path d="m470 452h-4v-6q0-5 4-5 5 1 6 4 0 4-1 6-1 1-5 1z" fill="#b18271" stroke="#b18271"/>
  <path d="m389 902h27v1q1 1 0 1-2 1-2 1v1h-1v1h1v2h-1v1h1v1h1v1h2l4 2q4 1 4 2t3 0q2 0 4-1 3 0 2-1 0-2 0-2h7l13 3q14 3 15 3h1v1q-1 1-4 1t-3 2-1 3q0 2 0 4 0 1-3 2l-3 1h1l1 1h1v2h2q3 0 2 1-1 0 1 1l3 1h-2v1h-1v1h-1v1h-1v1t-8 2q-8 1-8 2t0 2q-1 2-5 2-4 2-12 4l-8 2h-1v1h1v1h-2v1q0 1-20-3l-20-4h-1l-1-1-1-1h-1v-1h-1v-8h1q0-1 2-1 2-1 3-3 0-2 6-6 5-4 5-5 1-1 2-2 1 0 1-1l1-1 1-1h1v-1l1-1v-3h-1l-1-1-1-1h-1q-1 0-6-1l-4-1h-4v-1h-1v-1h-1v-1h-1v-1h1v-1h-1v-1l2-1q1-1 3-2t7-1z" fill="#da2f0f" stroke="#da2f0f"/>
  <path d="m695 271v-3h1v1l1 1v1l2 7q2 6 3 6 2 1 2 2v1h-1q-1-1-1 0h-1q-1 0-5-7l-5-7v-2h1v1l1 1q1 1 2-2z" fill="#9f6142" stroke="#9f6142"/>
  <path d="m730 253v1l1 1 1 1 1 3q1 3 1 5v3q0 1-2 0h-1v-1q-1 0-1 0t-4-2q-5-2-8-4t-4-5v-3t1 0v-1h7q7 0 7 1 1 1 1 1z" fill="#c9a18a" stroke="#c9a18a"/>
  <path d="m482 172h12q9 1 10 2 0 2 0 2h1t1 1q0 1 0 1h1t1 1q0 1 0 1h1v1q1 1 0 1h-2l-1-1q-1-1-2-1l-2-1q0-1-2-1-1-2-11-2h-13v-1t1-1q1 0 1 0v-1h1q1-1 3-1z" fill="#e5d0be" stroke="#e5d0be"/>
  <path d="m709 514l2-27h1q2 0 2 2v17l-1 16q-1 17-1 30-2 13-2 16v2l-1 4v3h-1v-2l-1-3-1-4v-27q0-1 3-27z" fill="#571503" stroke="#571503"/>
  <path d="m383 566l1-4t1 2l1 2 3 1h5l-2 2q-1 3-2 3v-2h-2l-3 1-3 1h-1v-1q-1 0-2 1h-1v-2h2q2 0 2-1 0 0 1-3z" fill="#ae6242" stroke="#ae6242"/>
  <path d="m544 427h3l13 1q14 2 18 2h4v1l-1 1-1 2v2l-6 8q-6 9-6 10v1l-1 1-1 1v1l-2 2q-1 2-1 3h-1v2h-1v1h-1v2h-2v-1l-1-1-1-1v-2l-1-1q-1-1-5-11t-6-17 0-7z" fill="#c7400e" stroke="#c7400e"/>
  <path d="m188 478l6-6 1 1q1 1 0 1-1 1-1 2l-4 5q-4 5-5 6-1 0-1 1-1 2 0 2t1 1v1h-1q-1 0-1-1-1 0-1-3v-4h1t5-6z" fill="#a59683" stroke="#a59683"/>
  <path d="m359 485h2q0 1 1 1v1q0 1-1 1v1q-1 0-1 1 0 0-1 0v1h-9q-3-1-4-1h-6q-3 0-7-1l-4-1 7-1q7-1 15-1h8v-1z" fill="#fddcd5" stroke="#fddcd5"/>
  <path d="m602 194l4 2h1q1 0 1 0v1h1q1 0 1 1v4q0 2 2 8 0 6-1 13t0 7h1v1q0 1-3 3t-7 3q-3 1-6 3-4 0-10 1-5 1-8-1-4-2-9-8-5-7-6-14-1-6 2-12 2-6 3-6t2-2q0-1 1-1 1-1 1-2 1-1 4-2t13-1 13 2z" fill="#c38304" stroke="#c38304"/>
  <path d="m156 417h4l11 3q11 2 13 4 1 0 1 1l2 1q2 2 3 8 2 5 2 7v2l-1 3q0 4-1 4h-1v-1h-1v-2h-1v-1l-1-1v-1q0-1-3-4-2-3-4-4l-2-1q0-1-3-3-4-2-9-3t-5 0-3 2l-3 1h-1v1h-1l-1-1h1v-1h-1v-1q1 0 1-1v-1q1 0 0-2 0-2-1-2h-1v-4h-4l4-1q3-1 6-2z" fill="#a69581" stroke="#a69581"/>
  <path d="m617 583l4 3q3 3 5 7t1 11q-1 6-2 8-1 3-2 4v1h-1q0 1-2 1l-1 2h-1l-1 1-1 1h-4v1h-1v-1l-1-1v-1h1v-1h-1v-1h1t0-1h1l1-1h2v-1h1v-1h1-7q-2 0-5-1t-5-3l-3-3v-2q-1-2-1-3v-2q0-1-1-4-1-2 1-6l1-3 4-1q4-2 7-2 4 0 6 0 3 0 3-1z" fill="#bd9a89" stroke="#bd9a89"/>
  <path d="m716 844h2l4 4q3 4 3 4h1v1q1 1 2 1 0 0 0 1h1v2h-1q0-1-2-2l-2-1q0-1-2-2-1 0-1-1t-1-1q-2 0-6 0h-5l-1 1v-1h-3v-1h-1v-1l5-2q4-2 7-2z" fill="#dd887d" stroke="#dd887d"/>
  <path d="m331 477h1v1q-1 2-1 2h1v1h1v1h3q3 0 8 1l6 1h-19v-1h-1v-5q0-1 1-1z" fill="#fda081" stroke="#fda081"/>
  <path d="m161 506l13 2q14 2 16 2h1l-1 1q-2 1-2 1h-5q-5 0-11 1h-6q-2-1-6-1h-6l-1-1-1-1h-3l-1-1v-1h10l2-1q1-1 1-1z" fill="#cac4c4" stroke="#cac4c4"/>
  <path d="m597 587l-1 3q0 2 0 5t0 3q0 1 0 2v4q0 3 1 3v1l1 2 2 2q2 3 3 4h-2q-2 0-2 1t-1 1-2-2-2 0v1h-1v-1q-1-1-1-1 0-1-2-5t0-12v-7h1v-1l1-2q2-2 3-2h2q1-1 1 0t-1 1z" fill="#b68c79" stroke="#b68c79"/>
  <path d="m382 361h1v1t-15 2h-16v1h-1q0 1-1 1l2-3q1-3 15-3 14 2 15 1z" fill="#fdac9f" stroke="#fdac9f"/>
  <path d="m177 435h-6l-6 1h-3q-3 0-10 3l-6 2v-1q0-1 4-4l3-3h1q0-1 0-1l3-1q3-1 3-2t5 0 9 3q3 2 3 3z" fill="#cdbdab" stroke="#cdbdab"/>
  <path d="m536 899l-2-1 4 1q4 1 6 3 3 2 5 2t3 1h1q0 1-5 1l-5 2h-2q-2 0-2-4-1-4-3-5z" fill="#f7989a" stroke="#f7989a"/>
  <path d="m406 564h4l4 1q3 1 6 6 4 5 4 11 0 7-3 11-2 5-3 6-2 1-2 2h-1q-1 0-4 1h-4v-2h2q2 0 2-1l1-1v-1h1v-1h1-4q-2 0-3 0t-5-4l-5-4h-1v-3h-1l-1 1 1 2q1 2 1 3v1h-1v-1h-1v-1h-1v-1h-1v1l-1 1-1 1-1-2-1-2v-4q0-5 1-7v-2l7-5q6-6 10-6z" fill="#c99682" stroke="#c99682"/>
  <path d="m718 667h1v4l-4 3q-3 4-6 8-3 3-3 3v1h-1v1h-1v1h-1v1h-1v5l4-2q4-3 6-6 3-2 8-2t6 0q2 1 2 2t1 1l1 9q0 8 1 10t1 8v13l-4 10q-4 9-5 12-1 2-2 5l-1 2-1 1q-1 1-1 2v1t-1 1-13 2l-11 1h-9q-10 0-13 8t-4 12q-1 3 0 12 1 8 1 9t1 3v1h2v1l1 1v1h-1v1h-1v1h-7v-1h-1v-1t-2-1-5-5l-3-4v-3h-1v-1h-1v16q0 2-1 2-1 1-1 2v2h-4q-3 0-6 0-4 0-10-2t-12-2-8 0q-1 0-4-1t-6-5l-4-3v-1t-1 0v-2q-1-1-1-11t2-23l3-14h1v-1h1v-1h1v1l1-1 1-1v-1q2-2 2-4 0-3 2-2 2 0 2 1t2 0q3-1 3-2t3-1h9v-1h-1v-1h-2v-1t-2-1-2-2v-2l-1-2q0-1 1-1t1-1 1-1q2 0 3-4t2-4 1-3l-1-2h2v-1l1-1v1l1 1q1 1 1 0t1-1v4l9 2q8 2 9 4 1 1 1 2h1q0 1 1 1h2v-1l1-1 1-1v-1l1-2v-2q1-1 2-8l1-6v-5h-1v-1h-2 5q2 1 2 0t12-1q12-1 14-1 1-1 0-3 0-2 3-3t3-2v-10l1-1v-2l-1-1t-8-1l-7-1v-2h7q6 0 6-1t2-1q3 0 9-1 7-1 10-2t3-2z" fill="#cc1e02" stroke="#cc1e02"/>
  <path d="m492 360h2v3q0 1-4 26t-6 26q-1 1-10-1-9 0-12-1-2-1-1-19l2-19 1-9q2-8 14-7t14 1z" fill="#cf8b09" stroke="#cf8b09"/>
  <path d="m442 572l3-3-2 4q-1 4-2 5-1 2 1 1 2 0 1 3t1 8q2 6 5 9 4 3 4 2 1 0 1 0v1h3v2h-3v4h-8v-1t-2-1q-2-2-5-5-3-4-3-11 0-8 1-11l1-3 1-1q1-1 3-3z" fill="#c08f7c" stroke="#c08f7c"/>
  <path d="m301 553l-2-12 19 1q20 2 29 2h9l12 2q12 2 13 2 0 0 1 1v3q0 2 1 3v3q1 2 1 3v1l-1 4q-1 3-2 4-2 0-2 1-1 0-1 1v7h-1v-6h-3q-4-1-32-1-27-2-28 0h-2l-3 1h-3v-1h5v-1h1v-1h-2l-1-1h-1v-1t-1 0-2-2q-1-1-4-13z" fill="#d7c8bd" stroke="#d7c8bd"/>
  <path d="m650 720v-4 6h1l2 2q2 0 3 0 0-1 1-1v1l-1 2v1l-1 1-1 1v1h-2q0-1-1-1v-2l-1-2v-1q0-1 0-4z" fill="#e18f87" stroke="#e18f87"/>
  <path d="m153 544v-2l13 2q13 2 13 3h-2q-1 1-7 1l-5 1h-3q0-1-2-1h-2l-2-1q-2-1-2-1h-1v-2z" fill="#ac9b8d" stroke="#ac9b8d"/>
  <path d="m495 926h3q4 0 9 0t9-2 8-2q5-2 10-1h6v1h-1l-1 1-1 1h-1l-2 4q-4 4-4 4v1h-1v1h1l1 4q1 2 1 3h1v1h1v1l1 1h-3l-1-1-1-1h-2q-3 0-6-1-4-1-22-2l-18-1h-1v1h-1v2l-1 1-1 2v3h-1v-1h-1v-1t-1-2q0-1-6-2h-6v-1h1v-1h1v-1h2l-3-1q-2-1-1-1 1-1-2-1h-2v-2h-1l-1-1h-1l3-1q3-1 3-2t-1-1q-1 1 1-2 1-2 1-4t3-2 4-1v-1h10q1 0 8 2 8 2 7 2t-1 1 1 1q1 1 1 2 0 0-1 0z" fill="#cc2e14" stroke="#cc2e14"/>
  <path d="m52 592v-14h1l1 5q1 5 2 6 1 0 2 3t2 3 1 1q1 1 1 3v2h1v1h1v1q0 1 1 1 0 0 1 1v1h1v1h1v1l7 4q6 4 11 6 4 0 12 1h12q5-1 8-2l3-2h1q2-1 3-1h1v1q1 1 2 0h1v1h-1v1l-1 1v2h3l2-1h3v1h-2l-1 1-1 1-9 2q-8 4-12 4-3 2-16 2h-12t-2-1q-3-1-13-6l-10-6v-1q-1 0-1 0 0-1-1-1v-1q-1-2-1-5-2-3-2-17z" fill="#a89783" stroke="#a89783"/>
  <path d="m476 189l4-1 6 1q5 1 6 1h1l3 4q4 4 4 5h1l1 2q2 2 2 5v4l-2 7q-2 7-4 9-2 3-2 3v1l-1 1v1h-1t0 1l-1 1h-1t0 1l-1 1h-1t-6 1-10-1-7-7q-3-4-3-16t4-17q4-6 8-7z" fill="#d49103" stroke="#d49103"/>
  <path d="m180 549l-2-2h1l5 1q5 0 6 1l1 1h1v1l1 1v1q-1 0-1 1h-2q-1 0-5 2l-4 2h-3q0-1 2-2t2-3-2-4z" fill="#ac9b8d" stroke="#ac9b8d"/>
  <path d="m567 904v3h-1v2h-10l-9-1h-4l5-2q5 0 5-1h7l6-1t1 0z" fill="#ef8289" stroke="#ef8289"/>
  <path d="m380 410l1 1v2q-1 2-1 13v11l-1 4v4h-2v-9q-1-8 0-15l1-7v-1q0-1 1-3t1 0z" fill="#e76452" stroke="#e76452"/>
  <path d="m552 577l2-1 7 1q7 1 9 3 4 3 4 4 0 0-1 0 0 0-3-2-4-2-10-2h-7l-1 1-1 1h-1q-1 0-1-1v-1q1 0 1-2l1-1h1z" fill="#b88c6f" stroke="#b88c6f"/>
  <path d="m523 729l1-2 1 7q1 7 1 7v9q0 10-1 12v3l-1 4q-2 4-2 5v1l-1 3q-1 2-1 3v1l-1 1v1h-1v1h-1v-5q1-6 3-28l2-21t1-2z" fill="#e36345" stroke="#e36345"/>
  <path d="m511 480l11-1h12l14 1q13 2 13 2h-1q-1 0-8 2h-7v1h1v1h-5v1h-1q-2-1-12-1-11 0-12 11v12l-1-1h-1v-2h-1v-1h-1v2l-1 2-1 2v-31h1z" fill="#bb8f7c" stroke="#bb8f7c"/>
  <path d="m394 823h6q0 1 0 1h1v1q0 1 2 1t3 1h2l2 1h2l2 1h1q0 1 1 1l-1 1q-1 1-7 5-5 4-5 5-1 2-5 9-6 8-6 10 0 1-1 0t-1 4q-2 4-2 8v3l-1 1q-1 0-2 2t-1 4v1l-1-1-1-1v1l-1 2-1 3v-2l-1-1v-4q-1-1-1-7v-6l-1-5v-10h1v-16l1-3v-3h1t0-1l2-1q2-2 2-3t2-1q1 0 8-1z" fill="#da2304" stroke="#da2304"/>
  <path d="m511 370l2-1v1q-1 1 0 4 1 2 1 2t1 2l1 2v8l-1 14q-1 13 0 14v1h12q13 0 15-17 2-18 3-18l1 1q0 1 1 0t1 1v2l1 1 1 1v-1l1 3v3h2l-1 11q-2 12-2 12v6l-1 1-1 1h-2v1l1 1v1h-3q-2 0 0 7t6 17 5 11l1 1v2l1 1 1 1v1h2v-2h1v-1h1v-2h1q0-1 1-3l2-2v-1l1-1 1-1 2 7q2 7 1 8 0 1 9 2 10 2 14 2t6 2q2 1 2 0 1-2 2 0 0 1 1 1v1h1v4h-1l2 1 2 1h1v1h-1l-1-1h-20q-1 0-14-1l-13-1t-13-2l-14-1q0-1-3-1t-11-2h-9l1 1q1 1 0 1-2 0-2 1v56l-1 1q-1 1-1 2v1l-1 1-1 2v2h-1v1h-1v1h-2v1h-1v-3l-1-3v-3q0-3-1-8l-1-4v-26q0-25 2-56t6-52q3-22 5-22zm11 74q2 0 4 1t2 5q0 5-3 6-3 0-5-1-2-2-2-5t0-4q2-2 4-2z" fill="#8c1201" stroke="#8c1201"/>
  <path d="m742 208h2q2 1 2 8v7h1v3l-1 3v7t-1-1v-1h-2v-9h-1l-1 1h-1v1q0 1-1-1-1-1-3 0h-3l1-1q0-1 1-2v-1q1 0 1 0v-1l2-4q2-3 3-4 1 0 1-2 0-3 0-3z" fill="#9d837e" stroke="#9d837e"/>
  <path d="m660 150h4v2q-1 2 1 2t2 1 3 2q2 1 3 1h1v2h-1v1q-1 0-1 1 0 2-2 2h-2 1v1h1v1h2t2 1q1 1 2 2 2 0 2 1 0 2 2 2t2 1-1 1 0 1q1 0 1 1 1 2 3 1 1 0 1 3 0 4 1 8t-1 4q-1 0-2 2 0 2 0 2v1h-1v1h-1v2q0 1-1 2h-1t0 1l-3 3q-3 4-3 5t1 1 1 4q-1 4 0 4 0 1 0 3v3l2 1h1v8q-1 4 0 5l-1 1q-2 1-3 2-1 0-3 2-1 1-4 3-4 1-6 6-2 4-2 16 0 11 1 14t1 6q0 2 0 6 0 5-2 6-1 0-1 6 0 5 1 5t0 2q0 2-2 3-2 0-2 1-1 1-1 2h1v1l-1 1v1h2v1h-1v1h-2q-3 0-4 1l-2 1h-8q-9 0-20-2h-12l-1-1h-1v-2h3v-1q1-1 1-4v-5q0-1 3-2t3-6-3-5q-2-1-1-4v-13h-1q0-1-6-1t-75-4l-68-4v1l-1 2q-1 2-1 8v6h1v1h1q0 1 0 5v5h-1q-1 1-2 3v2h-1q0 1-2 3-1 2-10 2h-8v-1h-1v-15q1-16 1-20v-5l1-7q1-7 1-27l1-20 1-13q2-12 3-35 2-23 76-22t105 3q30 0 34 0zm-178 22h12q9 1 10 2 0 2 0 2h1q1 0 1 0v1t1 1q1 0 1 0v1t1 1l3 4q2 3 3 4v1h1v2l1 1 1 2 1 9q1 9-1 19-2 9-3 12t-2 4v2q-1 0-1 0t2 2q2 0-1 4t-9 8l-6 3h-1v1h-13q-2 0-6-2l-3-2h-1t-3-2q-3-1-3-2t-4-4q-3-2-7-10-3-7-4-18t1-16q2-6 6-14 6-7 11-10l6-4t1-1h1q1-1 3-1zm131 80q-1 1-1 1v1t-1 0 1 1q1 0 1 1-1 1-6 3-5 3-15 3t-12-2l-2-2-6-3q-5-3-8-5t-7-10q-5-7-5-11-2-4 0-16 0-12 5-18 4-7 9-11t11-6 17-2 17 4 11 10q6 7 8 14t0 17q0 10-5 17-4 8-8 11-3 3-4 3z" fill="#701101" stroke="#701101"/>
  <path d="m367 512l-3-2 6 1q6 1 8 1h1v2q-1 1-1 2v1l-1-1h-4l-1-1q-2-1-5-3z" fill="#cda38e" stroke="#cda38e"/>
  <path d="m361 511l-1-1h4l3 2q3 2 5 3l1 1h4l1 1 5 3q5 2 5 4-2 2-2 2v1t-2 1l-2 1h-2q-1-1-1-1-1 0-3-2-3-1-3-2t-2-2h-2v-1q-1-1-3-2l-3-1h-2v-1q1 0 1-3 0-2-1-3z" fill="#d3c7c0" stroke="#d3c7c0"/>
  <path d="m102 480h1v1h1v3h1v1h1v1h1l1 1v1l1 4q1 3 1 8v6l-1 2v3h-1l-1-1h-1v1l-1-1-1-1v-2h-1v-1q-1-2-4-10-3-7-4-17v-10h1q2 0 3 5t2 5q1 1 1 1z" fill="#b3a483" stroke="#b3a483"/>
  <path d="m114 454l1-4v1l1 3q2 3 2 4v6l1 1 1 1v-2h1v-1h1v-1h1v-1h1v-1h1l1 1-1 2q-1 2-1 4v2t-1 1l-1 4q-1 4-3 3-3-1-3-1v-2q0-1-2-8l-2-7h1v-1q1 0 1 0t0-4z" fill="#a28d77" stroke="#a28d77"/>
  <path d="m748 216v-2h1q1 1 1 2v16q0 13-1 24v11h-1q0 1 0 1v7l-1 1v2h-1t-2 2q-1 0-2 0v-7l1-1 1-2v-2q0-1 1-16l1-16v-7l1-3v-6q1-2 1-4z" fill="#7f320f" stroke="#7f320f"/>
  <path d="m703 194h2q-1 1-4 4-3 4-6 12l-3 9q-1 1-4 4l-3 3v-1q-1-1-1-3l-1-2 2-4q3-3 4-7 1-3 3-6 2-2 2-3l4-3q4-3 5-3z" fill="#865f54" stroke="#865f54"/>
  <path d="m589 343l-1-1 14 1q14 1 18 1h3l13 1q12 1 19 2 7 0 7-1t4-1q3 0 3 1t3 1h4l3 1h20q21 1 21 0 1 0 2 0 0 1 1 2 0 0 1 1v10t-1 1-4 2q-3 2-6 5l-3 4-3 3q-3 4-3 8-1 4-3 7-3 4-5 19-2 14-2 30t3 24q3 9 3 11 2 2 2 3v1l1 1h-8v1q-1 0-1 1t-3 1q-3 1-5 2-3 1-8 1-4-2-4-3t-2 0l-2 1v-2h1q1 0 1-1 0 0 0-5-1-6 1-6 1-1 1-4 0-4-1-8t-2-3-1-1q-1-1-2-1-1 1-2 0 0-1-1-1t-1-1 1-1 1-2q-1-1-2-1l-1-1h-1v1q0 1-1 0 0-1-1-1t-1 1q-1 1-2 1-2 0-5 2-2 0-2 2v2h-2v-1h-1v-1l-1-2v-4q0-2-2-12v-10h-4q-2 0-5 1l-3 1t0-1-5-2l-5-1-2 6q-2 6-4 16 0 10 0 16 0 5 0 10v6l-1 2v2l-1 2v1h-1v1h-1v2h-1v-1h-1v-1h-1l-2-1-2-1h1v-4h-1v-1q-1 0-1-1-1-2-2 0 0 1-2 0-2-2-6-2t-14-2q-9-1-9-2 1-1-1-8l-2-7v-1q0-1 6-10l6-8v-2l1-2 1-1v-1h-4q-4 0-18-2l-13-1v-1l-1-1v-1h2l1-1 1-1v-6l1 2v1h7q7 1 13 1h6v-5q1-5 1-9 0-5 4-22l2-17h1v-1h1v-1h-1v-1h-9q-10 0-14 0t-6 12l-2 12-1 2v3h-2v-3l-1-3v1l-1-1-1-1v-2q0-2-1-1t-1 0l-1-1v-4q1-3 1-8v-5t1-1h2v-1h-1v-1h-5q-5 0-13 0t-9 1l-1 2-1 5q-1 6-1 8v3l-1 3-1 4v-8l-1-2q-1-2-1-2t-1-2q-1-3 0-4v-2q-1-1-1-9-2-8-4-9h-2v-1h1l3-1q3 0 36 0 32 2 37 1h5v-1q0-1-1-1l-1-1h-1q-1 0 2-1t2-2zm7 22h2q2 1 12 1h10l2 1q1 0 1 1-1 1-1 1v1l-4 24q-4 23-4 26v2h-2q-3 0-14 0l-10-1v-5q0-4 4-26 2-23 3-24h1t0-1zm67 79q0-1 1-1t1 1-1 1-1-1zm-65 18l-3-2v-5q1-6 4-6t4 3q1 4-1 7-1 3-4 3z" fill="#6d0e03" stroke="#6d0e03"/>
  <path d="m646 635v-1h3-1q-1 1-1 2t11 0q10 0 14-1h3v2h-2v5l-1 4v1q0 1-2 2t-20 3l-17 2h-1v-6l1-2 1-3q0-1 0-1h-1v-1q1 0 1-1v-1q1-1 5-1h4v-1h1v-1h1v-1h1z" fill="#9a5137" stroke="#9a5137"/>
  <path d="m209 448h1l1 2q1 3 1 4l-2 4q-2 4-2 4v1l-6 6q-6 7-7 7h-1q0-1 1-2 1 0 0-1l-1-1v-3l1-1q1-1 5-9t6-9q1 0 1-1 1-1 2-1z" fill="#a09080" stroke="#a09080"/>
  <path d="m731 684l2-4 1 5q2 5 2 20v15l-1 2-1 3v3h-1v-1h-1v-13q0-6-1-8t-1-10l-1-9q1 0 2-3z" fill="#e0653b" stroke="#e0653b"/>
  <path d="m150 529h2v1q1 0-1 2-1 1-1 2v2h-1l-1 1h-1v1l1 1v1h1l1 1 1 1h2v4h-1q-1 0-4-1h-4q0-1-2-2t-2-8l-1-7h1q1 0 1 0h1t0-1l3-1q3-1 3 1 1 1 2 2z" fill="#a2907d" stroke="#a2907d"/>
  <path d="m735 169v-1l9 4q8 4 9 22 1 17 0 19v2h-1q0 1-1 2l-1 1v-2q0-1-1-2h-1v2q0 2-1 4v3h-1v-7q0-7-2-8h-7l-3-1-2-1h8v-2t1 0v1h1v-1q0-2 0-4 0-1 1-1t1-7q0-6 1-6t0-2-3-6q-4-5-5-6-2-2-2-3z" fill="#a06538" stroke="#a06538"/>
  <path d="m218 567v1q0 2 1 4l1 1v2l10 1q9 0 9 1h-2q-2 1-3 1h-17v-8q1-3 1-3z" fill="#f05f1c" stroke="#f05f1c"/>
  <path d="m415 420h15q14 0 18 1l5 1v1q-1 1-4 1h-12q-9 0-15-1-7-1-7-2v-1z" fill="#d09a92" stroke="#d09a92"/>
  <path d="m715 200l1 3v1h4v-8h1v1h1v1h1l3 4q3 4 4 4h2l2 1 3 1h-12l-3 2q-2 1-2 6 0 4 3 7 4 3 7 3 2 0 2 0h4q2-1 3 0 1 2 1 1v-1h1l1-1h1v9h-1q-1 0-1-1t-1-1q-2 0-4 5t-3 12l-1 7-1-1-1-1v-1t-1-1q0-1-7-1h-8q0 1 0 1h-9v1h-1v3h-2v2h-1v1h-1v2l-1-1-1-1v-15q0-16 0-18t0-2l-1 1v-1q1-1 1-2v-1l3-7q3-8 5-10 2-3 3-6 1-4 1-4t-1 0h3q2 0 2 2 0 1 1 4z" fill="#9d837a" stroke="#9d837a"/>
  <path d="m162 518l3-1q0 1 1 1h1q1 0 1-1l8 1q8 0 16 1h7v1h16q16 2 18 1t7-1h4l3 1 3 1h8q9 2 18 2h11l6 1q6 0 6-1t1-1l1-1h1v-1h1v1h1v6l-1 2-1 1v3l-1 2-1 1v1h-2v2h-1v1q0 1-1 1 0 0-8 1t-32-2l-25-2h-1q-2-1-14-3t-19-1h-7q0-1-4-1-5-2-6-2 0-1-14-2l-14-1h-2q-1-1-2-1l-2-2h-3v1l-1 1h-2v-1h1v-1h1v-1h1v-1h1l2-1q1-1 6-2 4-1 6-1t2-1 2-1z" fill="#918171" stroke="#918171"/>
  <path d="m142 423l4-3h4v4h1q1 0 1 2 1 2 0 2l-4 2q-4 1-7 5-3 5-6 7-3 3-3 4v2h-1v1h-1v3l-1 2v1l-1 3q-2 2-2 2v1l-1-1h-1v1h-1v1h-1v1h-1v1h-1v2l-1-1-1-1v-6q0-1-2-4l-1-3h1q0-1 1-3t5-7q3-5 4-5t1-1 5-5l5-3h1q0-1 4-4z" fill="#8c7455" stroke="#8c7455"/>
  <path d="m137 550v1l-5-1q-5-2-5-1t-9 2q-8 1-15 6-7 4-9 6-2 1-2 2h-1v1h-1v1h-1v1h-1v1h-1v1h-1v-3h1v-1h1v-1h1v-1h1v-2h1t-1-3v-3h1v-1h1v-1h1v-1h1v-1h1v-1h1l4-4q4-3 8-5t11-1 12 4q5 4 6 5z" fill="#c3b1a0" stroke="#c3b1a0"/>
  <path d="m783 915v-1h1q1 0 2 2 0 3 1 6v4l-1 2q0 3-1 3v-4q-1-4-1-7v-3q0-1-1-2z" fill="#e5afa2" stroke="#e5afa2"/>
  <path d="m531 828l-3-3 3 3q3 3 4 4v2h-1v-1q0-1-3-5z" fill="#f7a6a4" stroke="#f7a6a4"/>
  <path d="m379 514v-2h1t2 1h1v1q0 2 3 3 4 1 4-1 0-3 1-3l1 2q1 3 4 5 4 2 4 2h1v1h-1v2l1 2 1 2v1h-1q-1 0-1 2v1l1 3v3h-1v1l-1-2-1-1v-1h-2v-1l-1-1q-1-1-3-3-2-1-4-1l-2 1v-1q0-1 0-2v-2t2-2q0-2-5-4l-5-3v-1q0-1 1-2z" fill="#997c64" stroke="#997c64"/>
  <path d="m428 814v3q-1 3-3 3h-2t-3-1l-4-1h2l4-2q4 0 5-1t1-1z" fill="#f4c2bd" stroke="#f4c2bd"/>
  <path d="m720 284h4v2l-1 1-1 1v2h-2v2h-2v1h-1v1h-4v-4h1v-3q1-2 2-2h2q2-1 2-1z" fill="#a66d56" stroke="#a66d56"/>
  <path d="m357 496h1l-2 4q-2 4-3 4-1 1-2 1v1h-1l-2 1-2 1h2l1 1 1 1h-3q-2 0-11-1l-9-1-3-1-2-1h-1v-1h-1v-1h4v-1l1-1v-1h2q2-1 3-1h8l6-1q7-1 7-1l3-1q2-1 3-1z" fill="#fc3c3c" stroke="#fc3c3c"/>
  <path d="m595 620l-2-3h1l2 2q3 3 8 3 6 0 6 1h2v-1h4l1-1 1-1h1l1-2q2 0 2-1h1v3q-1 3-2 6-2 2-3 2h-2l1 1 1 1 6 1q6 2 5 3h-6q-6 0-19-2l-13-2h-4l7-1 6-1h1v-1h-1v-1h-1v-1h-1v-1l-1-1q-1-1-2-3z" fill="#9f1d0b" stroke="#9f1d0b"/>
  <path d="m458 307h1v8l52 3q52 2 59 3 8 1 10 1h12l7 1h7v2h1l1 1h12q11 2 20 2h8l-2 1-1 1h-1v1h1v1h1v1l1 3 1 2-1 1q-1 0-1 1v1h-2q-2 1-8 1h-7l-3 1-3 1h-3q-4 0-18-1l-14-1h-4q-3 0-36-3l-34-2h2l1-1h-6l-7-1q-6-1-29-2-23-2-23-9 0-6-5-7l-5-1-2-1-2-1-1-2v-1h1v1h8q9 0 10-2 2-2 2-3z" fill="#871d0b" stroke="#871d0b"/>
  <path d="m598 462l-3-2v-5q1-6 4-6t4 3q1 4-1 7-1 3-4 3z" fill="#a9725f" stroke="#a9725f"/>
  <path d="m430 806t1 4v4h3l2 1 1 1h1l2 1q3 1 0 2t-1 3q1 2 2 2l-3 1h-5q-3-1-3-1h-1v-1h1q0-1 0-1 0-1 0-6l-1-4v-2q1-3 1-4z" fill="#d84c1f" stroke="#d84c1f"/>
  <path d="m702 285q0 1 0 1h1t1 1q0 1 1 1h1l1 1q1 0 1 1t1 2v1h-3q-1-1-2-1v-1h-2q0-1 0-2l-1-2v-1q1-1 1-1z" fill="#aa715d" stroke="#aa715d"/>
  <path d="m133 524h1v2h1v-1h1v-1h1v1h1v1q0 1 0 1v1h1l1 7q0 7 2 8t2 2v3q0 2 0 4 0 1 0 1v1l-1 1v1h-1t-2-3l-3-2v-1q-1 0-1 0 0-1-1-1v-1q-1 0-1 0t-4-4q-4-2-11-3t-11 1-8 5l-4 4h-1v1h-1v1h-1v1h-1v1h-1v1h-1v1-3h1v-1h1v-1q0-1 1-2h1v-1l1-1v-1h-1l-2-1h-1l-2 2q-2 0-3 1l-2 1h-1v1h-1v1h-2v-2h1l1-1 1-1h2v-1h1v-1q0-1 6-6l6-5q1-1 1-1h1q1 0 4-2t15-2 13-3v-2l1-1z" fill="#93836c" stroke="#93836c"/>
  <path d="m610 524v22h-5q-5 0-45-4l-41-4h5l2-1 1-1h1q2 0 1-1t1-1q1 0 1-1l31 2q31 3 37 3h6v-10h1q0-1 1-4t1-2q1 2 2 2z" fill="#d7b7a8" stroke="#d7b7a8"/>
  <path d="m594 810l-1-4h1q1 0 4 4t6 5 4 1q2 0 8 0t12 2 10 2q3 0 6 0h4v-2q0-1 1-2 1 0 1-2v-2l1 3q1 3 2 14t3 11 4-1h2l2-1 7 1q7 0 8 4 1 3 1 4h1l-1 5q-2 6-2 6v1t-1 1q-1 0-1 0v1h-1q-1 0-1 1v1h-1v1h-1v2h1l2 1 2 1 9 4q8 4 7 7-1 4-2 5l-1 2v10q0 7 2 11 0 4 0 5 0 0 1 1 1 0 1 2 1 1 5 1t15-4q10-4 10-5h1v-1h5v1l1 9v9l-2 7q-1 6-4 9t-4 3h-1v1h-1v1h-1v1h-1v1h-2 4l2-1 2-1h1t1-1h1v2h1v-1h3v1h-1v1h-1v2l3-1q3-1 3-1 1 0 2 0h2v-1h1v1h2v1l-1 1v2h2v1l-1 1h-1v1l-1 1h-1t-10 6l-10 5t-1 1q-1 0-1 0v1h-1q-1 1-11 5-9 4-23 5t-41-3l-26-3v-1h-9l-3-1q-2-1-10-1-9-2-22-3l-13-1q-1-1-1-1v-1t-11-2l-10-1h-1l-2-1h-4q-3 0-14-1l-10-1-4-1q-5-1-14-3l-8-2-1-2v-3h1v-3l1-2 1-1v-2h1v-1h1l18 1q18 1 22 2 3 1 6 1h2l1 1 1 1h3l5 1q5 1 8 2h4q1-1 1-1h1t0-1q1-1 1-1h1q1 0 1 1t3 1q2 0 4 0h2v-1l-1-4v-7q1-3 1-6v-5h-1v-1h2v-1q-1 0-2-1t-1-2q0-2 1-3t1-3l2-1v-1l-1-2v-6q1-1 1-10t2-17 5-11l3-4h2q1 0 8 0h6v-4q0-4 1-5v-13q1-13 1-18 0-6-2-10z" fill="#b51801" stroke="#b51801"/>
  <path d="m344 490h2q1 0 4 1h4v2q-1 3-2 3 0 0-10-2l-11-2h4q4 0 7-1l2-1z" fill="#fdac98" stroke="#fdac98"/>
  <path d="m127 604l10-10v1q1 1 1 3v1h-1v1h-1v1h-1v1h-1q0 1 1 2-1 0-1 0v1l-1 1q-1 2-2 2v1h-1v1l-1 1v1h-2v1h-1v1h-1q-1 0-3 1h-1q0-1-2-1h-2q1-1 10-10z" fill="#d0c6bb" stroke="#d0c6bb"/>
  <path d="m702 335h16q4 1 6 0h3l1 1q0 2 1 2v1l-2 3q-3 4-3 4 0 1 0 2v2h-1q-1-1-1-2-1 0-2 0 0 1-21 0h-20l-3-1h-2v-2l6-1q7 0 7-4t1-4q2 0 14-1z" fill="#90461e" stroke="#90461e"/>
  <path d="m475 976l1-1h2l16 2q16 1 34 1 17 0 22 2 4 0 9 1l5 1h2l-2 1-2 1h-3l-1 1q-2 1-2 1t-6 1l-5 1-2 1h-11q-9-1-18-1-9-2-20-5l-12-4v-1h-2q-2 0-4-1h-2v-1t1 0z" fill="#e3c8bd" stroke="#e3c8bd"/>
  <path d="m742 234h3v1q1 1 1 1l-1 16q-1 15-1 16v2l-1 2-1 1v4t-1-1q0-1-1-1-1-1-4-4l-2-4v-3q0-2-1-5l-1-3 1-7q1-7 3-12t4-5q1 0 1 1t1 1z" fill="#885f42" stroke="#885f42"/>
  <path d="m160 550l2-1h3l5 3q4 4 5 6v12l-1 8v-2h-2v-1l-1-1v-1h-2v-2q-1-2-1-2v-3q0-4-4-6-4-3-4-4 0-2-1-2t-1-2 2-2z" fill="#6f5b31" stroke="#6f5b31"/>
  <path d="m392 589h1v1h1v1h1v1h1q0 1 1 2l1 1v1h1l3 2q2 2 4 2h1v2h-1q-1 0-4 1h-3v-1q-1 0-1 0-1 0-2-1t-4-5l-2-4 1-1 1-1v-1z" fill="#cc9082" stroke="#cc9082"/>
  <path d="m717 484h2v1h1v1t0 1h1l1 1q0 1 0 12 0 10-1 10t-1-1-2-2-3-1h-1v-18q1-4 3-4z" fill="#964c31" stroke="#964c31"/>
  <path d="m222 482l1-1h2v1h1l2 1 1 1h2q2 0 2 1h-4q-4-1-5-1-2-1-2 0l-1 1v-1l1-2z" fill="#fc9687" stroke="#fc9687"/>
  <path d="m229 485h4l10 1q10 2 13 2h2t-12 2q-12 1-12 2t-2 2h-2v1h1v1h-1l-2 1h-1v1q0 1 1 1t1 1v1h-1l-1-1h-1v-1h-1v-1h-1v-1l-1-2-1-2v-1l-1-4v-3l1-1q0-1 2 0 1 0 5 1z" fill="#f54f34" stroke="#f54f34"/>
  <path d="m554 965h2q0 1 0 1h1l13 1q13 1 22 3 8 0 10 1l3 1h9v1h-2l-2 1h-2q-2 0-4 1-1 1-15 2l-14 2v-1h-2v-1h-1v-1h-2l-2-1q-2-1-5-1-3-2-3-3-1-1-4-1t-4-2l-2-2h2q1 0 2-1z" fill="#b27262" stroke="#b27262"/>
  <path d="m421 618l-1-2 4 1q5 1 4 11 0 10-1 11v1h-6v1h-3q0-1-1-1l-1-1h1q1-1 2-1 1-1 1-10 2-8 1-10z" fill="#ddad91" stroke="#ddad91"/>
  <path d="m494 962h2l2-1h1l1 1t16 1h15l6 1q6 2 9 2h4l2 2q1 2 4 2t4 1q0 1 3 3 3 0 5 1l2 1h2v1h1v1h2v1h-1v2h-2l-3 1h-3q-1 0-1 0h-1l-5-1q-5-1-9-1-5-2-22-2-18 0-34-1l-16-2q0-1-12-2l-11-1-1-1-2-1h8l1-1q1-1 2-2 1 0 0-1-1-2 14-3 14-1 17-1z" fill="#c9897c" stroke="#c9897c"/>
  <path d="m664 152v-2l22 4q21 4 22 4l1 1q1 1 0 17-1 15-2 15-1 1-1 1h-1v1h-1v1h-1q-1 0-5 3l-4 3h-2q-1 0-1-1-1-1-3 0l-3 1-1 1-1 1h-1l-1 1h-1v-2h2v-3h1v-1h1v-1t0-2q1-2 2-2 2 0 1-4t-1-8q0-3-1-3-2 1-3-1 0-1-1-1-1-1 0-1t1-1-2-1-2-2q0-1-2-1-1-1-2-2-2-1-2-1h-2v-1h-1v-1h-1 2q2 0 2-2 0-1 1-1v-1h1v-2h-1q-1 0-3-1-3-1-3-2t-2-1-1-2z" fill="#731c04" stroke="#731c04"/>
  <path d="m390 342h4l42 3q41 3 52 3h12l2 1h1l-4 1q-4 2-3 2t1 1-1 1 0 1q1 0 0 3-2 4-2 4v-2h-2q-2 0-14-1t-14 7l-1 9h-1v-4h-1v-1h-1l-2-1h-2v-1q0-2 2-6l1-5h-9q-9-1-14-1t-8 17l-2 16-1 3-1 4v-8h-1v1h-1v-3h-1v-1h-1v1h-1v1h-1v-2q0-2 2-13t2-12l2-2v-3h-1v-1h-12q-6 0-10-1h-5q0 1 0 1l-3 22q-3 21-4 26v4h-1l-2-1h-2v2h-1v1h-2v-1l1-1v-1h1v-1h-2v-1q-1 0-1-1 0 0 0-15l2-15v-5q0-3 1-4v-3q1-2 1-10 1-8 6-8z" fill="#911c04" stroke="#911c04"/>
  <path d="m503 958h1l10 1q11 1 14 1h4l2 1h1v1h-4v1h-15q-16-1-16-1l-1-1h1v-1h1l1-1 1-1z" fill="#bd5f3e" stroke="#bd5f3e"/>
  <path d="m640 695l-2-3 6 4q5 4 8 5 2 1 4 1h3v1h1v5h-1q-1 0-5 1h-8l-5 1q-1 0-1 0l-1 1v-2q1-2 1-2v-1l1-2q1-1 0-4 0-2-1-5z" fill="#b15935" stroke="#b15935"/>
  <path d="m562 923l2 1 1 1 1 1v2q0 3-1 6v3l-1 1q-1 2-4 3-4 1-4 2 0 0-1 1-1 0-1 0v1t-1 1q-1 0-1 0v1h-4q-3-1-8-2l-5-1-1-1v-1h-1v-1h-1q0-1-1-3l-1-4h-1v-1h1v-1t4-4l2-4h1l1-1 1-1h1v-1h7q7 1 10 1t5 1z" fill="#d7786c" stroke="#d7786c"/>
  <path d="m612 252h1v1q-1 1-1 3 0 1-5 3-5 3-15 3t-12-2l-2-2h12q11 0 16-3t6-3z" fill="#8f421e" stroke="#8f421e"/>
  <path d="m387 876l1-1v6q0 6 1 7 1 0 7 3t13 4 9 2h3v1l1 2-2 1q-1 1-2 1h-10v-1h-1v-1h-8l-4-1q-4-1-9-2l-5-1q-1-1 0-2 1 0 1-1v-1h-1t-2-1l-2-1-1-1h-1v-1l1-1v-2h1v-1h1v-2h1v2l1 1v2l1-3 1-2v-1l1 1 1 1v-1q0-2 1-4t2-2z" fill="#db380f" stroke="#db380f"/>
  <path d="m394 335l1-1 44 1q44 1 59 2h16l34 2q33 3 36 3h4l1 1q1 1-2 2t-2 1h5v2h-2l-5 1q-5 1-37-1-33 0-36 0l-3 1v-2h-5q-5-1-57-4l-52-3v-2q1-2 1-3z" fill="#94220b" stroke="#94220b"/>
  <path d="m620 428l2-6h5q5 1 5 2v1q-1 1 0 1l-2 2q-2 2-4 25t-3 24q0 1-2-1-3-1-3 1-1 3-1 3h-1v-1h-1v-1l1-2v-6q0-5 0-10 0-6 0-16 2-10 4-16z" fill="#330200" stroke="#330200"/>
  <path d="m489 693v-1l22 3q22 3 23 3h1l2 1q2 1-1 2l-2 1h-10q-2 0-2 2l-1 1q-1 0-2 5-2 4-7 4t-8-1q-4-1-4-2v-1l-1 1-1 1v2q-2 1-6 36-6 35-6 34 0 0 0 1t-1 2q-1 0-2 11-1 12-2 16l-1 3v4h-1l-1 1h-4v-1l1-1 1-1v-3q0-2 0-8-1-6-6-9-6-3-10-1-5 0-6 2-2 1-4 2-3 2-3 3t-1 1-1 2 0 4v4h-8l-1-1-2-1h-3v-4q-1-4-1-4v-4q0-3 1-10l1-6h1v-1h1v-3h1v-1h1v-1h1v-1h-1v-3q0-2 3-5t3-7q0-5-5-7-4-2-5-9v-8q0-1 2-6 2-6 4-14 2-9 4-13t5-5q3-2 15-2h14t0-1l1-2q1-2 7-3 5 0 5-1z" fill="#c31f03" stroke="#c31f03"/>
  <path d="m223 561l1-1 16 1q16 1 16 1h-1q-1 1 0 2h-3q-2 0-12 0h-10v-1t-4-1h-4t1-1z" fill="#a67569" stroke="#a67569"/>
  <path d="m144 548v-3h4q3 1 4 1h2t2 1l2 1h2q2 0 2 1l-2 1q-2 0-2 2t1 2 1 2q0 1 4 4 4 2 4 6v3q0 1-3-1l-3-2q0-1-1-2-1-2-4-2t-7 2l-3 2v-1l-1-1v-1l-1-1-1-1v-3l-1-1v-2l1-1v-1t0-1q0-2 0-4z" fill="#867858" stroke="#867858"/>
  <path d="m160 417h-4q-3 1-6 2l-4 1-4 3q-4 3-4 4h-3v-1h1v-1l1-1 1-1v-1h1v-1l1-1q0-2 3-3t10-1 7 1z" fill="#c1b7a7" stroke="#c1b7a7"/>
  <path d="m740 353v-1l10 2q10 2 11 3h1q0 1 2 1h1v2h-13l1 1 1 1h-2q-1 0-4-1h-2q-1-1-2-1-1-2-1-3-1-2-2-3-1 0-1-1z" fill="#b78465" stroke="#b78465"/>
  <path d="m745 326v4q-1 4-1 4 0 1-5 2-5 2-5 4l-1 3v-3q0-4 5-6 4-1 5-2t1-2v-3q0-1 1-1z" fill="#d9bfa6" stroke="#d9bfa6"/>
  <path d="m395 534l1 1v1h2v1l1 1 1 2v-1h2v3h1v1l-1 5q-2 5-2 6v1l-1 1-1 2v2h-1v-2q0-3-6-3l-6 1h-2v-1q-1-1-1-3v-8q0-4 2-8l2-5 2-1q2 0 4 1 2 2 3 3z" fill="#684516" stroke="#684516"/>
  <path d="m701 259v-1h3v1h1v1h2l1 2q0 1 4 3 3 1 3 2v1q-1 1-1 1-1-1-6-1-6 0-6 1v1h-4v1t-1 0v-1l-1-1v-6h2v-4l1 1 1 1v-2h1z" fill="#9f5f32" stroke="#9f5f32"/>
  <path d="m678 241l1-1v11l1 10q1 10 2 10t2-1q0-2 3 0t3 3h1l5 7q4 7 5 7l1 2q0 1 0 2h1v1q1 1 1 1v3h-1q-1 0-1 2l-1 1h-1q0 1-1 1t-3 13-14 12q-11-1-18 0l-8 1v-1h1v-1h-2v-1l1-1v-1h-1q0-1 1-2 0-1 2-1 2-1 2-3 1-2 0-2t-1-5q0-6 1-6 2-1 2-6 0-4 0-6 0-3-1-6t-1-14q0-12 2-16 2-5 6-6 3-2 4-3 2-2 3-2 1-1 3-2z" fill="#6d0e00" stroke="#6d0e00"/>
  <path d="m817 389l1-4 2 9q2 9 2 28t-1 20v1h-1v-13q0-14-2-21l-1-7q-1-1-2-4l-1-4h2v-1t1-4z" fill="#c8521a" stroke="#c8521a"/>
  <path d="m219 513l2-1 23 1q23 1 25 3 2 0 2 1h-9q-8 1-12 1h-10q-8 0-16-2l-7-1v-1q1 0 2-1z" fill="#dbd5d4" stroke="#dbd5d4"/>
  <path d="m698 244v21h-1q-1 0-1 1v2h-1v-3q-1-3-1-3v-4q0-2-1-4v-4q1-2 1-10l2-7v-3q0-3 1-4v-1l1-1t0 2 0 18z" fill="#885926" stroke="#885926"/>
  <path d="m123 469h1v5q0 4 0 8v3l1 1v1h-1l-2-1h-2l-1-1q-1-1-3-2t-2-2l-1-1v-1h-1v-1h-1l-1-1h-2l2-1q2 0 4 0h2t3 1q2 1 3-3 0-5 1-5z" fill="#d4cac1" stroke="#d4cac1"/>
  <path d="m384 556h1l6-1q6 0 6 3v2q-1 0-2 2t-5 0l-4-1v-1q0-1-1-2 0-1-1-1h-1v-1h1z" fill="#95755c" stroke="#95755c"/>
  <path d="m752 215h1l2 7q3 6 3 18v13q-1 1-2 0 0-1-2 5l-2 5-1 1-1 1v3h-2v-2l1-10q1-11 1-24v-14l1-1q1-1 1-2z" fill="#9f7861" stroke="#9f7861"/>
  <path d="m482 498v23q-1-1-2-1t-3 3l-2 2v-15q-1-14-1-20 0-7-16-9l-17-1-3-1h-2v-1h14q15-2 16-2 0-1 1-1v-1h2q1 0 7 1t6 23z" fill="#bea297" stroke="#bea297"/>
  <path d="m640 664h6l3 2q3 1 5 2 2 2 2 3v1h-1q-1 0-7-1h-7l1 2q0 1 6 3 7 2 8 2h1v1h1l2 1q3 2 7 2t6 0q2 2 10 2h8v-1h1q1-1 2-1h1v-1h1v-1h1v1l-1 1v10q0 1-3 2t-3 3q1 2 0 3-2 0-14 1-12 0-12 1t-2 0h-6q-2 0-4-1-3-1-8-5l-6-4t-2-2q0-2-1-10t1-12q2-3 4-4z" fill="#df2607" stroke="#df2607"/>
  <path d="m680 675h1v1h-3q-4 1 0 3 4 3 6 3h3l2 1h2v1h-8q-8 0-10-2-2 0-6 0t-7-2l-2-1h-1v-1h9v-1l1-1 1-1v-1t-1 0l-2-1q-2-1-2-1h3q4 0 4 1t4 1q5 0 6 1z" fill="#e15445" stroke="#e15445"/>
  <path d="m758 253v2q0 2-2 7 0 4-3 9t-4 7l-1 3t-1-1v-4l1-1v-7t1 0v-1q1 0 1-1v-1l1-1 1-1 2-5q2-6 2-5 1 1 2 0z" fill="#b08d74" stroke="#b08d74"/>
  <path d="m410 564h-4q-4 0-10 6l-7 5v-1l1-1v-1q1 0 2-1 0-1 0-2v-2h3q1-1 2-2l1-1h6q6 0 6 0z" fill="#c07052" stroke="#c07052"/>
  <path d="m724 854l1 3q1 3-2 7-2 4-13 10-11 8-12 9-2 1-2 1v1h-1v1h-2v1h-1v2h-1v1h-1v-4l1-2q1-1 2-5 1-3-7-7l-9-4-2-1-2-1h-1v-2h1v-1h1v-2h1v-1h1l1-1h1v2l4-1q5 0 8-2 2 0 2-1l4-1q5-2 8-3 4-2 4-2l1-1h5q4 0 6 0 1 0 1 1t1 1q2 1 2 2z" fill="#c9441c" stroke="#c9441c"/>
  <path d="m642 673l-1-2h14q0 1 1 1h7t2 1l2 1q1 0 1 0v1l-1 1-1 1v1h-10q-1 0-8-2-6-2-6-3z" fill="#f9d4d1" stroke="#f9d4d1"/>
  <path d="m794 467v-1l2 1q3 1 3 2t2 1 3 1h3q1 0 1 0 0 1 0 1h-1v1q-1 0-2 3-2 2-7 2h-5v-1h-1v-1h-1v-1h-1v-5h2v-1h1v-1h1v-1z" fill="#d0603c" stroke="#d0603c"/>
  <path d="m316 890h1l2 1h2l11 2q12 1 14 2h1l-3 1q-2 0-2 1-1 1-1 2h1v2h-1v1h-2v1h-1v1h-1v1h-3q-3-1-15-3l-12-2h-3v-9h1v-1h1v-1h4q5 1 6 1z" fill="#fd5340" stroke="#fd5340"/>
  <path d="m566 982h3l3-1h3l1 1h1l26 4q26 4 33 5t10 1h3l-1 1h-1v2h1l1 1h-1v1l1 1v1h-1q-2 1-2 1h1l-3 1q-2 1-5 1h-3l2 1 1 1h-11q-8 0-20-2-13-2-37-6l-24-4-1-1-2-1h-3v-1h2l2-1 5-1q6-1 6-1t2-1l1-1h3l2-1 2-1h-1t1 0z" fill="#dbc3bc" stroke="#dbc3bc"/>
  <path d="m733 275v-1h1l1 2q1 1 1 2v1h3q2 1 3 0v1q1 0 2 0 2-2 2-2h1v2q1 1 1 1l-1 19q-1 19-2 22v4q-1 0-1 1v1q-1 0-2 1 0 1-1 0t-7 1-6 3l-1 2h-3q-2 1-6 0h-5q0-1 1-1t-7-2-7-18l1-15 1-1q0-2 1-2h1v-3t-1-1v-1h1v1q1 0 2 1h2q1 1 1 0 1 0 1-3l1-2h1l1 1h1v1q0 1-1 2v2h4v-1h1v-1h2v-2h2v-2l1-1 1-1v-2h-2q-1 0-3 1h-2v-1h2l1-1 1-1h2q2-1 2-2t4-2q4-2 4-3z" fill="#905123" stroke="#905123"/>
  <path d="m130 429l5-2h2l-5 3q-5 4-5 5t-1 1-4 5q-4 5-5 7t-1 3h-1v-2l1-1v-5l1-1 1-1q0-1 4-5 3-5 8-7z" fill="#a59783" stroke="#a59783"/>
  <path d="m212 440l1-1v1l1 1q1 1 2 2v9q0 9 0 9v-1q0-2-1-6 0-3-1-3t-2 1v2q0-1-1-4l-1-2v-4q0-4 2-4z" fill="#a9907b" stroke="#a9907b"/>
  <path d="m687 764h1v20l-1 2q-1 3-1 3v-12q0-12 1-13z" fill="#f7c1a1" stroke="#f7c1a1"/>
  <path d="m599 716l-1-8h3t1 1l8 1q7 0 14 1h8v1l-1 2v3q-1 0-1 1t-1 0l-1-1v-1l-1 1v1h-2l1 2q0 3-1 3t-2 4-3 4q-1 0-1 1t-1 1-1 1l1 2v2q0 1 2 2t2 1v1h2v1h1v1h-9q-3 0-3 1t-3 2q-2 1-2 0t-2-1q-2-1-2 2 0 2-2 4v1l-1 1-1 1v-1h-1v1h-1v1h-1v-9q1-9 3-13t0-6q0-3-1-12z" fill="#d32c05" stroke="#d32c05"/>
  <path d="m723 351v-1h1l1 1q1 1 3 1 3 0 6 0h6t0 1h1l1 2q0 2 2 4 1 1 2 2 0 1-1 1t-2 0q-1-1-4-1-3-1-5 1-3 0-6 1l-4 1v-8q0-4-1-5z" fill="#904f26" stroke="#904f26"/>
  <path d="m510 197l1 9q1 9 0 12-1 4-1 4-1 0-1 1h-1q0-1-1-1t-2-6l-1-6v-4q0-3-2-5l-1-2v-2q0-2 1-2 2 0 2-1 1 0 3 1t3 2z" fill="#916c41" stroke="#916c41"/>
  <path d="m512 476h8q8 2 11 2t3 1h-12l-11 1h-1v-1q0-1 2-1 1 0 0-1l-1-1h1z" fill="#a14d39" stroke="#a14d39"/>
  <path d="m521 705l1 6q0 6 0 9v11l-2 21q-2 22-3 28v8q-1 3-1 6v4l-1 8q-1 9-1 12v4q0 2 4 4 3 3 3 4t5 3q6 1 7 3t1 2v5q0 5-1 6v7q-1 5-1 14v18q0 9 1 9 0 1 1 1l2 1q2 1 3 5 0 4 2 4h6l9 1h10v-2h1v1l1 2v1l-2 1q0 2-1 3t-1 3q0 1 1 2t2 1v1h-2v1h1v3l-1-1-1-1-2-1q-2-1-5-1t-10-1h-13q-5-1-10 1-4 0-8 2t-9 2-9 0h-3q1 0 1 0 0-1-1-2-1 0-1-1t1-1-7-2q-7-2-8-2h-1v-1q-1-1-23-5-23-3-22-2v2t0 2q1 1-2 1-2 1-4 1-3 1-3 0t-4-2l-4-2h-2v-1h-1v-1h-1v-1h1v-2h-1v-1h1v-1t2-1q1 0 0-1v-1h2q1 0 2-1l2-1-1-2v-1h-3q-2-1-9-2t-13-4-7-3q-1-1-1-7v-9q0-4 2-8 0-5 1-4t1 0q0-2 6-10 4-7 5-9 0-1 5-5 6-4 7-5l1-1h9l1-1 2-1 4-1q4-1 4-2h2l3-1q-1 0-2-2-2-2 1-3t0-2l-2-1h7v-4q0-4 0-4 0-2 1-2t1-1 3-3q2-1 4-2 1-2 6-2 4-2 10 1 5 3 6 9 0 6 0 8v3l-1 1-1 1v1h4l1-1h1v-4l1-3q1-4 2-16 1-11 2-11 1-1 1-2t0-1q0 1 6-34 4-35 6-36v-2l1-1 1-1v1q0 1 4 2 3 1 8 1t7-4q1-5 2-5z" fill="#ce1b01" stroke="#ce1b01"/>
  <path d="m304 516h2v3q0 3-1 5v1h-1v-3h-1v-1h-1v1h-1l-1 1q-1 0-1 1t-6 1l-6-1h-3t2-1 1-1h-1v-1h-1v-1h5v-1h6l2-1h2q2-2 4-2z" fill="#aaa09b" stroke="#aaa09b"/>
  <path d="m386 527v1q0 1 0 2v1l-2 5q-2 4-2 8v5q-1-1-1-1-1 0-13-2l-12-2 2-4q2-5 5-7 3-3 11-3t8-1l2-1q2-1 2-1z" fill="#9a8c7f" stroke="#9a8c7f"/>
  <path d="m786 928l1-2q1 0 3 4 3 5 12 11 10 5 13 10t3 16-2 17q-2 5-5 10t-10 9q-6 5-13 7t-40 2q-34 0-73-4l-39-4h3l-1-1-2-1h3q3 0 5-1l3-1h-1t2-1h1v-1l-1-1v-1h1l-1-1h-1v-2h1l1-1 16-1q17-1 18-1 2 0 2-1t7-3q7-1 10-5 4-3 9-7 5-3 5-4v-1q1-1 1-1h1t0-1l10-5q10-6 10-6h2t0-1q1-1 1-1l5-2q6-3 6-3l6-1q5-2 11-6 7-4 7-4l4-3q5-3 5-4 1 0 1-3z" fill="#d3c2c1" stroke="#d3c2c1"/>
  <path d="m564 938l1-1v4l1 4v1h-2q-2 0-4 0-3 0-3-1-1-1-3 1l-2 1v-1q0-1 1-2 1 0 5-2 5-2 6-4z" fill="#c64c3d" stroke="#c64c3d"/>
  <path d="m401 530h1l40 2q40 3 40 2v-1l2 1q2 1 2-2 0-2 3-1t3 4 1 3h1v9h1v1h1v1h-1v1h-5q-4 0-46-4l-41-3v-1h-1v-3h-1v-3l-1-3v-1q0-2 1-2z" fill="#c43510" stroke="#c43510"/>
  <path d="m770 378h3v1h1v2h-1v1h-1q-2 0-4 1h-3v-4h1q2-1 4-1z" fill="#eab1a1" stroke="#eab1a1"/>
  <path d="m540 487h1l20 2q20 1 21 2h1l8 1q8 2 10 3 3 1 3 11 0 9 1 16v16h-6q-6 0-37-3l-31-2h-1q-1-1-7-1-5-1-6-12l-1-11v-12q1-11 12-11 10 0 12 1z" fill="#565a5d" stroke="#565a5d"/>
  <path d="m96 535l3-1v1q0 1-6 5-7 5-7 6v1h-1v1h-2v1q-1 0-1 1 0 0-1 0v1q-1 0-1 1-1 0-2 1 0 0-1 1h-1q-1 0 0-3t2-3q2-1-2 0-3 0-4-1v-1t1-1q1 0 1-1v-1h1q1-1 1-1h1v-1h1v-1t2 0l1-1h3l2-1h3l1-1 1-1h1q1 0 4-1z" fill="#c0b4a5" stroke="#c0b4a5"/>
  <path d="m373 839l1-6h2v3q0 3 1 10v12h-1v1q0 1-1 3v1q-1 0-1-5 0-4-2-5l-1-1v-4q1-3 2-9z" fill="#f9a080" stroke="#f9a080"/>
  <path d="m346 497h4q1 1 1 1t-7 1l-6 1 3-1q3-1 5-2z" fill="#fd6d71" stroke="#fd6d71"/>
  <path d="m450 357h9l-1 5q-2 4-2 6v4l-4 20q-3 20-6 20-4 0-6 0-3 0-8 0-4-2-6-2h-2v-1q0-1 0-7v-6l1-4 1-3 2-16q3-17 8-17t14 1z" fill="#ce8908" stroke="#ce8908"/>
  <path d="m524 702h2v2q0 3 0 9v6l-1 3q-1 2-1 4v1l-1 2q-1 2-1 2v-11q0-3 0-9l-1-6 1-1q0-2 2-2z" fill="#dd552b" stroke="#dd552b"/>
  <path d="m535 852v4l-1 11q-2 11-2 11v-8q0-9 1-14v-6h1q0-1 1 2z" fill="#f8a68e" stroke="#f8a68e"/>
  <path d="m255 562h15l4 2q4 2 4 2h1v1h-3q-4-1-12-2l-9-1q-1-1 0-2z" fill="#a76e5d" stroke="#a76e5d"/>
  <path d="m153 587h1l-4 5q-3 6-11 14t-8 8h-1v1h-2q-1 1-2 0v-2h1v-1h2v-1l1-1v-1h1v-1q1 0 2-2l1-1q1-1 1-1h1t0-1h1v-1h1v-1h1v-1h1v-1t4-3l4-3v-1t2-2q2-3 3-3z" fill="#a39687" stroke="#a39687"/>
  <path d="m308 887l2-1 4 2q4 0 5 1t2 1v1h-2l-2-1h-1q-1 0-6-1h-4v-1h1l1-1z" fill="#fd92ac" stroke="#fd92ac"/>
  <path d="m372 890l-1-1h1q1 1 3 1h2l2 1q2 1 2 1h1v1q0 1-1 1-1 1 0 2h-8t-1-1q-2-1 0-2 0-1 0-3z" fill="#f66d38" stroke="#f66d38"/>
 </g>
</svg>
